<svg width="400" height="400" viewBox="0 0 400 400" fill="none" xmlns="http://www.w3.org/2000/svg">
<rect width="400" height="400" fill="#3DDB99"/>
<path d="M152 200H232V216H248V232H264V216H296V248H264V264H248V296H120V280H104V216H120V200H136V184H152V200Z" fill="white"/>
<path d="M248 312H120V296H248V312ZM120 296H104V280H120V296ZM296 264H280V280H264V296H248V264H264V248H296V264ZM104 280H88V216H104V280ZM184 280H152V264H184V280ZM152 256H136V232H152V256ZM200 232V256H184V232H200ZM312 248H296V216H312V248ZM280 168H296V216H264V232H248V216H168V200H152V184H136V200H120V216H104V200H88V184H104V152H120V136H136V120H248V136H264V104H280V168ZM328 120H312V104H328V120ZM264 104H248V88H264V104ZM312 104H280V88H312V104ZM248 88H216V72H248V88Z" fill="#191919"/>
</svg>
