<svg width="24" height="24" viewBox="0 0 24 24" fill="none" xmlns="http://www.w3.org/2000/svg">
<path d="M1 19.7V17.5H3.25V9.8C3.25 8.27833 3.71875 6.92625 4.65625 5.74375C5.59375 4.56125 6.8125 3.78667 8.3125 3.42V2.65C8.3125 2.19167 8.47656 1.80208 8.80469 1.48125C9.13281 1.16042 9.53125 1 10 1C10.4688 1 10.8672 1.16042 11.1953 1.48125C11.5234 1.80208 11.6875 2.19167 11.6875 2.65V3.42C13.1875 3.78667 14.4062 4.56125 15.3438 5.74375C16.2812 6.92625 16.75 8.27833 16.75 9.8V17.5H19V19.7H1ZM10 23C9.38125 23 8.85156 22.7846 8.41094 22.3538C7.97031 21.9229 7.75 21.405 7.75 20.8H12.25C12.25 21.405 12.0297 21.9229 11.5891 22.3538C11.1484 22.7846 10.6187 23 10 23ZM5.5 17.5H14.5V9.8C14.5 8.59 14.0594 7.55417 13.1781 6.6925C12.2969 5.83083 11.2375 5.4 10 5.4C8.7625 5.4 7.70312 5.83083 6.82187 6.6925C5.94062 7.55417 5.5 8.59 5.5 9.8V17.5Z" fill="#1F1F1F"/>
<circle cx="21" cy="3" r="3" fill="#3DDB99"/>
</svg>
