<svg width="70" height="70" viewBox="0 0 70 70" fill="none" xmlns="http://www.w3.org/2000/svg">
<path d="M41.3059 49.4444C41.7217 49.4444 42.0588 49.7894 42.0588 50.2148V60.2296C42.0588 60.6551 41.7217 61 41.3059 61H37.1647C36.7489 61 36.4118 60.6551 36.4118 60.2296V50.2148C36.4118 49.7894 36.7489 49.4444 37.1647 49.4444H41.3059ZM15.8941 49.4444C16.31 49.4444 16.6471 49.7894 16.6471 50.2148V54.4519C16.6471 54.8773 16.31 55.2222 15.8941 55.2222H11.7529C11.3371 55.2222 11 54.8773 11 54.4519V50.2148C11 49.7894 11.3371 49.4444 11.7529 49.4444H15.8941ZM30.0118 37.8889C30.4276 37.8889 30.7647 38.2338 30.7647 38.6593V42.8963C30.7647 43.3218 30.4276 43.6667 30.0118 43.6667H20.2235C19.8077 43.6667 19.4706 43.3218 19.4706 42.8963V38.6593C19.4706 38.2338 19.8077 37.8889 20.2235 37.8889H30.0118ZM41.3059 37.8889C41.7217 37.8889 42.0588 38.2338 42.0588 38.6593V42.8963C42.0588 43.3218 41.7217 43.6667 41.3059 43.6667H37.1647C36.7489 43.6667 36.4118 43.3218 36.4118 42.8963V38.6593C36.4118 38.2338 36.7489 37.8889 37.1647 37.8889H41.3059ZM58.2471 37.8889C58.6629 37.8889 59 38.2338 59 38.6593V42.8963C59 43.3218 58.6629 43.6667 58.2471 43.6667H48.4588C48.043 43.6667 47.7059 43.3218 47.7059 42.8963V38.6593C47.7059 38.2338 48.043 37.8889 48.4588 37.8889H58.2471ZM41.3059 20.5556C41.7217 20.5556 42.0588 20.9005 42.0588 21.3259V31.3407C42.0588 31.7662 41.7217 32.1111 41.3059 32.1111H37.1647C36.7489 32.1111 36.4118 31.7662 36.4118 31.3407V21.3259C36.4118 20.9005 36.7489 20.5556 37.1647 20.5556H41.3059ZM25.1176 25.563C25.1176 25.9884 24.7805 26.3333 24.3647 26.3333H20.2235C19.8077 26.3333 19.4706 25.9884 19.4706 25.563V20.5556H25.1176V25.563ZM19.4706 20.5556H14.5765C14.1606 20.5556 13.8235 20.2106 13.8235 19.7852V15.5481C13.8235 15.1227 14.1606 14.7778 14.5765 14.7778H19.4706V20.5556ZM30.0118 14.7778C30.4276 14.7778 30.7647 15.1227 30.7647 15.5481V19.7852C30.7647 20.2106 30.4276 20.5556 30.0118 20.5556H25.1176V14.7778H30.0118ZM52.6 14.7778C53.0158 14.7778 53.3529 15.1227 53.3529 15.5481V19.7852C53.3529 20.2106 53.0158 20.5556 52.6 20.5556H48.4588C48.043 20.5556 47.7059 20.2106 47.7059 19.7852V15.5481C47.7059 15.1227 48.043 14.7778 48.4588 14.7778H52.6ZM24.3647 9C24.7805 9 25.1176 9.34491 25.1176 9.77037V14.7778H19.4706V9.77037C19.4706 9.34491 19.8077 9 20.2235 9H24.3647Z" fill="#C6C6C6"/>
</svg>
