<svg width="70" height="70" viewBox="0 0 70 70" fill="none" xmlns="http://www.w3.org/2000/svg">
<path d="M34.9996 58.1028C34.9996 58.5667 34.6235 58.9428 34.1596 58.9428H23.2396C22.7757 58.9428 22.3996 58.5667 22.3996 58.1028V52.6428H34.9996V58.1028ZM47.5996 58.1028C47.5996 58.5667 47.2235 58.9428 46.7596 58.9428H42.1396C41.6757 58.9428 41.2996 58.5667 41.2996 58.1028V52.6428H34.9996V47.1828C34.9996 46.7189 35.3757 46.3428 35.8396 46.3428H41.2996V40.0428H35.8396C35.3757 40.0428 34.9996 39.6667 34.9996 39.2028V33.7428H41.2996V18.2728C41.2996 17.8089 41.6757 17.4328 42.1396 17.4328H47.5996V58.1028ZM22.3996 52.6428H16.9396C16.4757 52.6428 16.0996 52.2667 16.0996 51.8028V34.5828C16.0996 34.1189 16.4757 33.7428 16.9396 33.7428H22.3996V52.6428ZM34.1596 27.4428C34.6235 27.4428 34.9996 27.8189 34.9996 28.2828V33.7428H22.3996V28.2828C22.3996 27.8189 22.7757 27.4428 23.2396 27.4428H34.1596ZM53.0596 11.1328C53.5235 11.1328 53.8996 11.5089 53.8996 11.9728V16.5928C53.8996 17.0567 53.5235 17.4328 53.0596 17.4328H47.5996V11.9728C47.5996 11.5089 47.9757 11.1328 48.4396 11.1328H53.0596Z" fill="#C6C6C6"/>
</svg>
