<svg width="70" height="70" viewBox="0 0 70 70" fill="none" xmlns="http://www.w3.org/2000/svg">
<path d="M42.1586 58.334C42.5443 58.334 42.857 58.0245 42.857 57.6426V53.1488H37.6189V42.7784H48.0951V47.9636H52.6348C53.0205 47.9636 53.3332 47.6541 53.3332 47.2723V11.6673H17.3649C16.9792 11.6673 16.6665 11.9768 16.6665 12.3587V57.6426C16.6665 58.0245 16.9792 58.334 17.3649 58.334H42.1586ZM21.9046 16.8525H48.0951V37.5932H33.0792C32.6935 37.5932 32.3808 37.9028 32.3808 38.2846V53.1488H21.9046V16.8525ZM47.3967 53.1488C47.7824 53.1488 48.0951 52.8393 48.0951 52.4574V47.9636H43.5554C43.1697 47.9636 42.857 48.2731 42.857 48.655V53.1488H47.3967Z" fill="#C6C6C6"/>
</svg>
