<svg width="70" height="70" viewBox="0 0 70 70" fill="none" xmlns="http://www.w3.org/2000/svg">
<path d="M47.5 17C47.5 16.4477 47.0523 16 46.5 16H23.5C22.9477 16 22.5 16.4477 22.5 17V21H47.5V17ZM21.5 26C22.0523 26 22.5 25.5523 22.5 25V21H18.5C17.9477 21 17.5 21.4477 17.5 22V26H21.5ZM52.5 22C52.5 21.4477 52.0523 21 51.5 21H47.5V25C47.5 25.5523 47.9477 26 48.5 26H52.5V22ZM16.5 31C17.0523 31 17.5 30.5523 17.5 30V26H13.5C12.9477 26 12.5 26.4477 12.5 27V31H16.5ZM57.5 27C57.5 26.4477 57.0523 26 56.5 26H52.5V30C52.5 30.5523 52.9477 31 53.5 31H57.5V27ZM44.5 29C44.5 28.4477 44.0523 28 43.5 28H26.5C25.9477 28 25.5 28.4477 25.5 29V33H44.5V29ZM11.5 36C12.0523 36 12.5 35.5523 12.5 35V31H8.5C7.94772 31 7.5 31.4477 7.5 32V35C7.5 35.5523 7.94772 36 8.5 36H11.5ZM61.5 36C62.0523 36 62.5 35.5523 62.5 35V32C62.5 31.4477 62.0523 31 61.5 31H57.5V35C57.5 35.5523 57.9477 36 58.5 36H61.5ZM24.5 38C25.0523 38 25.5 37.5523 25.5 37V33H21.5C20.9477 33 20.5 33.4477 20.5 34V38H24.5ZM49.5 34C49.5 33.4477 49.0523 33 48.5 33H44.5V37C44.5 37.5523 44.9477 38 45.5 38H49.5V34ZM19.5 43C20.0523 43 20.5 42.5523 20.5 42V38H16.5C15.9477 38 15.5 38.4477 15.5 39V42C15.5 42.5523 15.9477 43 16.5 43H19.5ZM53.5 43C54.0523 43 54.5 42.5523 54.5 42V39C54.5 38.4477 54.0523 38 53.5 38H49.5V42C49.5 42.5523 49.9477 43 50.5 43H53.5ZM42.5 41C42.5 40.4477 42.0523 40 41.5 40H28.5C27.9477 40 27.5 40.4477 27.5 41V45H42.5V41ZM26.5 50C27.0523 50 27.5 49.5523 27.5 49V45H23.5C22.9477 45 22.5 45.4477 22.5 46V49C22.5 49.5523 22.9477 50 23.5 50H26.5ZM46.5 50C47.0523 50 47.5 49.5523 47.5 49V46C47.5 45.4477 47.0523 45 46.5 45H42.5V49C42.5 49.5523 42.9477 50 43.5 50H46.5ZM36.5 57C37.0523 57 37.5 56.5523 37.5 56V53C37.5 52.4477 37.0523 52 36.5 52H33.5C32.9477 52 32.5 52.4477 32.5 53V56C32.5 56.5523 32.9477 57 33.5 57H36.5Z" fill="#C6C6C6"/>
</svg>
