<svg width="70" height="70" viewBox="0 0 70 70" fill="none" xmlns="http://www.w3.org/2000/svg">
<path d="M48 13C48 12.4477 47.5523 12 47 12H23C22.4477 12 22 12.4477 22 13V17H48V13ZM21 22C21.5523 22 22 21.5523 22 21V17H18C17.4477 17 17 17.4477 17 18V22H21ZM53 18C53 17.4477 52.5523 17 52 17H48V21C48 21.5523 48.4477 22 49 22H53V18ZM17 22H13C12.4477 22 12 22.4477 12 23V47C12 47.5523 12.4477 48 13 48H17V22ZM57 48C57.5523 48 58 47.5523 58 47V23C58 22.4477 57.5523 22 57 22H53V48H57ZM30 30C30.5523 30 31 29.5523 31 29V26C31 25.4477 30.5523 25 30 25H27C26.4477 25 26 25.4477 26 26V29C26 29.5523 26.4477 30 27 30H30ZM43 30C43.5523 30 44 29.5523 44 29V26C44 25.4477 43.5523 25 43 25H40C39.4477 25 39 25.4477 39 26V29C39 29.5523 39.4477 30 40 30H43ZM42 37C42 36.4477 41.5523 36 41 36H29C28.4477 36 28 36.4477 28 37V41H42V37ZM27 46C27.5523 46 28 45.5523 28 45V41H24C23.4477 41 23 41.4477 23 42V45C23 45.5523 23.4477 46 24 46H27ZM46 46C46.5523 46 47 45.5523 47 45V42C47 41.4477 46.5523 41 46 41H42V45C42 45.5523 42.4477 46 43 46H46ZM22 49C22 48.4477 21.5523 48 21 48H17V52C17 52.5523 17.4477 53 18 53H22V49ZM52 53C52.5523 53 53 52.5523 53 52V48H49C48.4477 48 48 48.4477 48 49V53H52ZM47 58C47.5523 58 48 57.5523 48 57V53H22V57C22 57.5523 22.4477 58 23 58H47Z" fill="#C6C6C6"/>
</svg>
