<svg width="70" height="70" viewBox="0 0 70 70" fill="none" xmlns="http://www.w3.org/2000/svg">
<path d="M26 35C25.4477 35 25 35.4477 25 36L25 40L21 40C20.4477 40 20 40.4477 20 41L20 44L16 44C15.4477 44 15 44.4477 15 45L15 48C15 48.5523 15.4477 49 16 49L20 49L20 52C20 52.5523 20.4477 53 21 53L25 53L25 57C25 57.5523 25.4477 58 26 58L29 58C29.5523 58 30 57.5523 30 57L30 49L52 49C52.5523 49 53 48.5523 53 48L53 44L30 44L30 36C30 35.4477 29.5523 35 29 35L26 35ZM54 33C53.4477 33 53 33.4477 53 34L53 44L57 44C57.5523 44 58 43.5523 58 43L58 34C58 33.4477 57.5523 33 57 33L54 33Z" fill="#C6C6C6"/>
<path d="M44 35C44.5523 35 45 34.5523 45 34V30H49C49.5523 30 50 29.5523 50 29V26H54C54.5523 26 55 25.5523 55 25V22C55 21.4477 54.5523 21 54 21H50V18C50 17.4477 49.5523 17 49 17H45V13C45 12.4477 44.5523 12 44 12H41C40.4477 12 40 12.4477 40 13V21H18C17.4477 21 17 21.4477 17 22V26H40V34C40 34.5523 40.4477 35 41 35H44ZM16 37C16.5523 37 17 36.5523 17 36V26H13C12.4477 26 12 26.4477 12 27V36C12 36.5523 12.4477 37 13 37H16Z" fill="#C6C6C6"/>
</svg>
