<svg width="21" height="21" viewBox="0 0 21 21" fill="none" xmlns="http://www.w3.org/2000/svg">
<path d="M3.5 19.25V7H6.125V5.25C6.125 4.03958 6.55171 3.00796 7.40513 2.15513C8.25854 1.30229 9.29017 0.875584 10.5 0.875001C11.7098 0.874417 12.7417 1.30113 13.5957 2.15513C14.4497 3.00913 14.8762 4.04075 14.875 5.25V7H17.5V19.25H3.5ZM11.7364 14.3614C12.0788 14.0184 12.25 13.6063 12.25 13.125C12.25 12.6438 12.0788 12.2319 11.7364 11.8895C11.394 11.5471 10.9818 11.3756 10.5 11.375C10.0182 11.3744 9.60633 11.5459 9.2645 11.8895C8.92267 12.2331 8.75117 12.6449 8.75 13.125C8.74883 13.6051 8.92033 14.0172 9.2645 14.3614C9.60867 14.7055 10.0205 14.8767 10.5 14.875C10.9795 14.8733 11.3916 14.702 11.7364 14.3614ZM7.875 7H13.125V5.25C13.125 4.52083 12.8698 3.90104 12.3594 3.39063C11.849 2.88021 11.2292 2.625 10.5 2.625C9.77083 2.625 9.15104 2.88021 8.64062 3.39063C8.13021 3.90104 7.875 4.52083 7.875 5.25V7Z" fill="#C6C6C6"/>
</svg>
