<svg width="64" height="64" viewBox="0 0 64 64" fill="none" xmlns="http://www.w3.org/2000/svg">
<path d="M5.3334 26.6654H10.6667V31.9987H5.3334V26.6654ZM5.3334 37.332H10.6667V31.9987H5.3334V37.332ZM58.6667 26.6654H53.3334V31.9987H58.6667V26.6654ZM58.6667 37.332H53.3334V31.9987H58.6667V37.332ZM10.6667 21.332H16.0001V26.6654H10.6667V21.332ZM10.6667 42.6654H16.0001V37.332H10.6667V42.6654ZM53.3334 21.332H48.0001V26.6654H53.3334V21.332ZM53.3334 42.6654H48.0001V37.332H53.3334V42.6654ZM16.0001 15.9987H21.3334V21.332H16.0001V15.9987ZM16.0001 47.9987H21.3334V42.6654H16.0001V47.9987ZM48.0001 15.9987H42.6667V21.332H48.0001V15.9987ZM48.0001 47.9987H42.6667V42.6654H48.0001V47.9987ZM21.3334 10.6654H26.6667V15.9987H21.3334V10.6654ZM21.3334 53.332H26.6667V47.9987H21.3334V53.332ZM42.6667 10.6654H37.3334V15.9987H42.6667V10.6654ZM42.6667 53.332H37.3334V47.9987H42.6667V53.332ZM26.6667 5.33203H32.0001V10.6654H26.6667V5.33203ZM26.6667 58.6654H32.0001V53.332H26.6667V58.6654ZM37.3334 5.33203H32.0001V10.6654H37.3334V5.33203ZM37.3334 58.6654H32.0001V53.332H37.3334V58.6654ZM29.3334 45.332H34.6667V39.9987H29.3334V45.332ZM29.3334 34.6654H34.6667V18.6654H29.3334V34.6654Z" fill="#C6C6C6"/>
</svg>
