<svg width="24" height="24" viewBox="0 0 24 24" fill="none" xmlns="http://www.w3.org/2000/svg">
<path fill-rule="evenodd" clip-rule="evenodd" d="M16.5954 11.0562C16.5954 7.99782 14.1151 5.51797 11.0562 5.51797C7.99742 5.51813 5.51797 7.99792 5.51797 11.0562C5.51819 14.1143 7.99755 16.5933 11.0562 16.5935C14.115 16.5935 16.5952 14.1144 16.5954 11.0562ZM18.1134 11.0562C18.1133 12.7313 17.5273 14.2686 16.5519 15.4787L20 18.9267L18.9267 20L15.4787 16.5519C14.2686 17.5266 12.731 18.1114 11.0562 18.1114C7.15935 18.1113 4.00021 14.9528 4 11.0562C4 7.15941 7.15922 4.00016 11.0562 4C14.9533 4 18.1134 7.15931 18.1134 11.0562Z" fill="#191919"/>
</svg>
