<svg width="24" height="24" viewBox="0 0 24 24" fill="none" xmlns="http://www.w3.org/2000/svg">
<path d="M9.526 10.6654C8.842 9.98157 8.5 9.15691 8.5 8.19141C8.5 7.22607 8.842 6.40141 9.526 5.71741C10.21 5.03341 11.0347 4.69141 12 4.69141C12.9653 4.69141 13.79 5.03341 14.474 5.71741C15.158 6.40141 15.5 7.22607 15.5 8.19141C15.5 9.15691 15.158 9.98157 14.474 10.6654C13.79 11.3494 12.9653 11.6914 12 11.6914C11.0347 11.6914 10.21 11.3494 9.526 10.6654ZM4.5 19.3069V17.0837C4.5 16.594 4.633 16.1405 4.899 15.7232C5.165 15.3058 5.5205 14.985 5.9655 14.7607C6.95383 14.2762 7.95092 13.9127 8.95675 13.6704C9.96258 13.4281 10.977 13.3069 12 13.3069C13.023 13.3069 14.0374 13.4281 15.0433 13.6704C16.0491 13.9127 17.0462 14.2762 18.0345 14.7607C18.4795 14.985 18.835 15.3058 19.101 15.7232C19.367 16.1405 19.5 16.594 19.5 17.0837V19.3069H4.5ZM6 17.8069H18V17.0837C18 16.8812 17.9413 16.6937 17.824 16.5212C17.7067 16.3488 17.5474 16.2082 17.3462 16.0992C16.4846 15.6748 15.6061 15.3533 14.7107 15.1347C13.8153 14.9162 12.9117 14.8069 12 14.8069C11.0883 14.8069 10.1848 14.9162 9.28925 15.1347C8.39392 15.3533 7.51542 15.6748 6.65375 16.0992C6.45258 16.2082 6.29333 16.3488 6.176 16.5212C6.05867 16.6937 6 16.8812 6 17.0837V17.8069ZM13.4125 9.60391C13.8042 9.21224 14 8.74141 14 8.19141C14 7.64141 13.8042 7.17057 13.4125 6.77891C13.0208 6.38724 12.55 6.19141 12 6.19141C11.45 6.19141 10.9792 6.38724 10.5875 6.77891C10.1958 7.17057 10 7.64141 10 8.19141C10 8.74141 10.1958 9.21224 10.5875 9.60391C10.9792 9.99557 11.45 10.1914 12 10.1914C12.55 10.1914 13.0208 9.99557 13.4125 9.60391Z" fill="#989898"/>
</svg>
