<svg width="280" height="85" viewBox="0 0 280 85" fill="none" xmlns="http://www.w3.org/2000/svg">
<path d="M14.652 19.7119V15.7959H28.644V31.5039H24.376V19.7119H14.652ZM21.736 31.0639C20.196 31.6359 17.776 32.0319 15.092 32.0319C5.85197 32.0319 -2.7433e-05 25.3879 -2.7433e-05 16.0159C-2.7433e-05 6.64391 5.85197 -9.46522e-05 14.872 -9.46522e-05C21.78 -9.46522e-05 27.456 4.09191 28.732 10.3399H23.892C22.968 6.3799 19.184 3.9159 14.872 3.9159C8.44797 3.9159 4.61997 8.93191 4.61997 16.0159C4.61997 23.0559 8.44797 28.1159 15.092 28.1159C18.216 28.1159 20.24 27.6759 21.736 27.1479V31.0639ZM33.3334 10.3399H44.5974V14.1679H37.5574V31.5039H33.3334V10.3399ZM50.2593 20.8999C50.2593 26.0479 53.3393 28.1599 56.2433 28.1599C59.1473 28.1599 62.2273 26.0479 62.2273 20.8999C62.2273 15.7959 59.1473 13.6839 56.2433 13.6839C53.3393 13.6839 50.2593 15.7959 50.2593 20.8999ZM45.9473 20.8999C45.9473 14.6959 50.0393 9.94391 56.2433 9.94391C62.4473 9.94391 66.5393 14.6959 66.5393 20.8999C66.5393 27.1479 62.4473 31.8999 56.2433 31.8999C50.0393 31.8999 45.9473 27.1479 45.9473 20.8999ZM79.4843 31.5039H75.1283L67.2083 10.3399H71.6963L77.4603 25.9599L80.6723 17.1599L78.1203 10.3399H87.4043L84.8523 17.1599L88.1083 25.9599L93.8283 10.3399H98.3163L90.3963 31.5039H86.0403L82.7843 22.7479L79.4843 31.5039ZM113.147 14.1679H107.295V27.6759H113.147V31.5039H103.071V14.1679H98.7593V10.3399H103.071V4.48791H107.295V10.3399H113.147V14.1679ZM116.225 0.527904H120.449V10.3399H132.593V31.5039H128.369V14.1679H120.449V31.5039H116.225V0.527904ZM158.859 14.1679H153.007V27.6759H158.859V31.5039H148.783V14.1679H144.471V10.3399H148.783V4.48791H153.007V10.3399H158.859V14.1679ZM161.937 0.527904H166.161V10.3399H178.305V31.5039H174.081V14.1679H166.161V31.5039H161.937V0.527904ZM183.133 10.3399H194.397V14.1679H187.357V31.5039H183.133V10.3399ZM200.059 20.8999C200.059 26.0479 203.139 28.1599 206.043 28.1599C208.947 28.1599 212.027 26.0479 212.027 20.8999C212.027 15.7959 208.947 13.6839 206.043 13.6839C203.139 13.6839 200.059 15.7959 200.059 20.8999ZM195.747 20.8999C195.747 14.6959 199.839 9.94391 206.043 9.94391C212.247 9.94391 216.339 14.6959 216.339 20.8999C216.339 27.1479 212.247 31.8999 206.043 31.8999C199.839 31.8999 195.747 27.1479 195.747 20.8999ZM236.264 23.1879C236.264 28.2479 233.492 31.8999 227.948 31.8999C222.404 31.8999 219.632 28.2479 219.632 23.1879V10.3399H223.856V23.1879C223.856 26.7079 225.396 28.1599 227.948 28.1599C230.5 28.1599 232.04 26.7079 232.04 23.1879V10.3399H236.264V23.1879ZM239.556 18.8319C239.556 13.7719 243.384 9.85591 248.356 9.85591C249.412 9.85591 250.38 10.0319 251.304 10.3399H259.752V14.1679H255.924C256.716 15.5319 257.156 17.1159 257.156 18.8319C257.156 23.5399 254.076 26.8839 249.764 27.7199L257.948 36.6079V40.1279H239.644V36.2999H252.14L242.504 25.6959C240.832 23.8479 239.556 21.6039 239.556 18.8319ZM243.516 18.8319C243.516 21.9999 245.716 24.2439 248.356 24.2439C250.996 24.2439 253.196 21.9999 253.196 18.8319C253.196 15.7079 250.952 13.5079 248.356 13.5079C245.76 13.5079 243.516 15.7079 243.516 18.8319ZM262.845 0.527904H267.069V10.3399H279.213V31.5039H274.989V14.1679H267.069V31.5039H262.845V0.527904ZM59.6038 84.1279H55.1158L58.4158 75.3279L50.5398 54.3399H55.0278L60.6158 69.4759L66.2038 54.3399H70.6918L59.6038 84.1279ZM75.6813 64.8999C75.6813 70.0479 78.7613 72.1599 81.6653 72.1599C84.5693 72.1599 87.6493 70.0479 87.6493 64.8999C87.6493 59.7959 84.5693 57.6839 81.6653 57.6839C78.7613 57.6839 75.6813 59.7959 75.6813 64.8999ZM71.3693 64.8999C71.3693 58.6959 75.4613 53.9439 81.6653 53.9439C87.8693 53.9439 91.9613 58.6959 91.9613 64.8999C91.9613 71.1479 87.8693 75.8999 81.6653 75.8999C75.4613 75.8999 71.3693 71.1479 71.3693 64.8999ZM111.887 67.1879C111.887 72.2479 109.115 75.8999 103.571 75.8999C98.0268 75.8999 95.2548 72.2479 95.2548 67.1879V54.3399H99.4788V67.1879C99.4788 70.7079 101.019 72.1599 103.571 72.1599C106.123 72.1599 107.663 70.7079 107.663 67.1879V54.3399H111.887V67.1879ZM116.499 54.3399H127.763V58.1679H120.723V75.5039H116.499V54.3399ZM159.076 75.5039H154.984V73.0839C153.62 74.8439 151.552 75.8999 148.648 75.8999C142.928 75.8999 138.792 71.3679 138.792 64.8999C138.792 58.4759 142.928 53.9439 148.648 53.9439C151.464 53.9439 153.488 54.9119 154.852 56.5839V44.5279H159.076V75.5039ZM155.072 64.8999C155.072 59.7959 151.992 57.6839 149.088 57.6839C146.184 57.6839 143.104 59.7959 143.104 64.8999C143.104 70.0479 146.184 72.1599 149.088 72.1599C151.992 72.1599 155.072 70.0479 155.072 64.8999ZM164.149 75.5039V54.3399H168.373V75.5039H164.149ZM164.149 50.8199V44.5279H168.373V50.8199H164.149ZM192.401 75.5039H188.309V73.0839C186.945 74.8439 184.877 75.8999 181.973 75.8999C176.253 75.8999 172.117 71.3679 172.117 64.8999C172.117 58.4759 176.253 53.9439 181.973 53.9439C184.789 53.9439 186.813 54.9119 188.177 56.5839V44.5279H192.401V75.5039ZM188.397 64.8999C188.397 59.7959 185.317 57.6839 182.413 57.6839C179.509 57.6839 176.429 59.7959 176.429 64.8999C176.429 70.0479 179.509 72.1599 182.413 72.1599C185.317 72.1599 188.397 70.0479 188.397 64.8999ZM197.474 75.5039V54.3399H201.698V75.5039H197.474ZM197.474 50.8199V44.5279H201.698V50.8199H197.474ZM218.95 58.1679H213.098V71.6759H218.95V75.5039H208.874V58.1679H204.562V54.3399H208.874V48.4879H213.098V54.3399H218.95V58.1679ZM222.028 75.5039V69.2119H227.352V75.5039H222.028Z" fill="#191919"/>
</svg>
