<svg width="82" height="60" viewBox="0 0 82 60" fill="none" xmlns="http://www.w3.org/2000/svg">
<g clip-path="url(#clip0_5993_28120)">
<path d="M0 60H82V0H72.8889V9.14286H63.7778V18.2857H54.6667V9.14286H45.5556V0H36.4444V9.14286H27.3333V18.2857H18.2222V9.14286H9.11111V0H0V60Z" fill="#3DDB99"/>
<path d="M30.6444 43.22V45H21.8844V30.92H23.9044V43.22H30.6444ZM34.2359 45L30.6359 35.38H32.6759L35.3759 42.78L38.0559 35.38H40.0959L36.4959 45H34.2359ZM40.2984 42.14H42.7184V45H40.2984V42.14ZM45.4372 32.72H43.2172L44.2172 30.92H47.4572V45H45.4372V32.72ZM54.9331 30.72C56.4798 30.72 57.6798 31.3333 58.5331 32.56C59.3865 33.7733 59.8131 35.5733 59.8131 37.96C59.8131 40.3467 59.3865 42.1533 58.5331 43.38C57.6798 44.5933 56.4798 45.2 54.9331 45.2C53.3865 45.2 52.1865 44.5933 51.3331 43.38C50.4798 42.1533 50.0531 40.3467 50.0531 37.96C50.0531 35.5733 50.4798 33.7733 51.3331 32.56C52.1865 31.3333 53.3865 30.72 54.9331 30.72ZM54.9331 32.5C54.0131 32.5 53.3198 32.9467 52.8531 33.84C52.3865 34.72 52.1531 36.0933 52.1531 37.96C52.1531 39.8267 52.3865 41.2067 52.8531 42.1C53.3198 42.98 54.0131 43.42 54.9331 43.42C55.8531 43.42 56.5465 42.98 57.0131 42.1C57.4798 41.2067 57.7131 39.8267 57.7131 37.96C57.7131 36.0933 57.4798 34.72 57.0131 33.84C56.5465 32.9467 55.8531 32.5 54.9331 32.5Z" fill="#25835C"/>
<path d="M30.6444 43.22H30.8944V42.97H30.6444V43.22ZM30.6444 45V45.25H30.8944V45H30.6444ZM21.8844 45H21.6344V45.25H21.8844V45ZM21.8844 30.92V30.67H21.6344V30.92H21.8844ZM23.9044 30.92H24.1544V30.67H23.9044V30.92ZM23.9044 43.22H23.6544V43.47H23.9044V43.22ZM30.6444 43.22H30.3944V45H30.6444H30.8944V43.22H30.6444ZM30.6444 45V44.75H21.8844V45V45.25H30.6444V45ZM21.8844 45H22.1344V30.92H21.8844H21.6344V45H21.8844ZM21.8844 30.92V31.17H23.9044V30.92V30.67H21.8844V30.92ZM23.9044 30.92H23.6544V43.22H23.9044H24.1544V30.92H23.9044ZM23.9044 43.22V43.47H30.6444V43.22V42.97H23.9044V43.22ZM34.2359 45L34.0018 45.0876L34.0626 45.25H34.2359V45ZM30.6359 35.38V35.13H30.2755L30.4018 35.4676L30.6359 35.38ZM32.6759 35.38L32.9108 35.2943L32.8508 35.13H32.6759V35.38ZM35.3759 42.78L35.1411 42.8657L35.3768 43.5118L35.611 42.8651L35.3759 42.78ZM38.0559 35.38V35.13H37.8806L37.8209 35.2949L38.0559 35.38ZM40.0959 35.38L40.3301 35.4676L40.4564 35.13H40.0959V35.38ZM36.4959 45V45.25H36.6693L36.7301 45.0876L36.4959 45ZM34.2359 45L34.4701 44.9124L30.8701 35.2924L30.6359 35.38L30.4018 35.4676L34.0018 45.0876L34.2359 45ZM30.6359 35.38V35.63H32.6759V35.38V35.13H30.6359V35.38ZM32.6759 35.38L32.4411 35.4657L35.1411 42.8657L35.3759 42.78L35.6108 42.6943L32.9108 35.2943L32.6759 35.38ZM35.3759 42.78L35.611 42.8651L38.291 35.4651L38.0559 35.38L37.8209 35.2949L35.1409 42.6949L35.3759 42.78ZM38.0559 35.38V35.63H40.0959V35.38V35.13H38.0559V35.38ZM40.0959 35.38L39.8618 35.2924L36.2618 44.9124L36.4959 45L36.7301 45.0876L40.3301 35.4676L40.0959 35.38ZM36.4959 45V44.75H34.2359V45V45.25H36.4959V45ZM40.2984 42.14V41.89H40.0484V42.14H40.2984ZM42.7184 42.14H42.9684V41.89H42.7184V42.14ZM42.7184 45V45.25H42.9684V45H42.7184ZM40.2984 45H40.0484V45.25H40.2984V45ZM40.2984 42.14V42.39H42.7184V42.14V41.89H40.2984V42.14ZM42.7184 42.14H42.4684V45H42.7184H42.9684V42.14H42.7184ZM42.7184 45V44.75H40.2984V45V45.25H42.7184V45ZM40.2984 45H40.5484V42.14H40.2984H40.0484V45H40.2984ZM45.4372 32.72H45.6872V32.47H45.4372V32.72ZM43.2172 32.72L42.9986 32.5986L42.7923 32.97H43.2172V32.72ZM44.2172 30.92V30.67H44.0701L43.9986 30.7986L44.2172 30.92ZM47.4572 30.92H47.7072V30.67H47.4572V30.92ZM47.4572 45V45.25H47.7072V45H47.4572ZM45.4372 45H45.1872V45.25H45.4372V45ZM45.4372 32.72V32.47H43.2172V32.72V32.97H45.4372V32.72ZM43.2172 32.72L43.4357 32.8414L44.4357 31.0414L44.2172 30.92L43.9986 30.7986L42.9986 32.5986L43.2172 32.72ZM44.2172 30.92V31.17H47.4572V30.92V30.67H44.2172V30.92ZM47.4572 30.92H47.2072V45H47.4572H47.7072V30.92H47.4572ZM47.4572 45V44.75H45.4372V45V45.25H47.4572V45ZM45.4372 45H45.6872V32.72H45.4372H45.1872V45H45.4372ZM58.5331 32.56L58.3279 32.7028L58.3286 32.7038L58.5331 32.56ZM58.5331 43.38L58.7376 43.5238L58.7383 43.5228L58.5331 43.38ZM51.3331 43.38L51.1279 43.5228L51.1286 43.5238L51.3331 43.38ZM51.3331 32.56L51.5376 32.7038L51.5384 32.7028L51.3331 32.56ZM52.8531 33.84L53.074 33.9571L53.0747 33.9558L52.8531 33.84ZM52.8531 42.1L52.6315 42.2158L52.6323 42.2171L52.8531 42.1ZM57.0131 42.1L57.234 42.2171L57.2347 42.2158L57.0131 42.1ZM57.0131 33.84L56.7915 33.9558L56.7923 33.9571L57.0131 33.84ZM54.9331 30.72V30.97C56.4014 30.97 57.5232 31.546 58.3279 32.7028L58.5331 32.56L58.7383 32.4172C57.8364 31.1206 56.5582 30.47 54.9331 30.47V30.72ZM58.5331 32.56L58.3286 32.7038C59.1393 33.8564 59.5631 35.5961 59.5631 37.96H59.8131H60.0631C60.0631 35.5506 59.6337 33.6902 58.7376 32.4162L58.5331 32.56ZM59.8131 37.96H59.5631C59.5631 40.3236 59.1394 42.0707 58.3279 43.2372L58.5331 43.38L58.7383 43.5228C59.6335 42.2359 60.0631 40.3697 60.0631 37.96H59.8131ZM58.5331 43.38L58.3286 43.2362C57.5244 44.3796 56.4025 44.95 54.9331 44.95V45.2V45.45C56.5571 45.45 57.8351 44.807 58.7376 43.5238L58.5331 43.38ZM54.9331 45.2V44.95C53.4637 44.95 52.3418 44.3796 51.5376 43.2362L51.3331 43.38L51.1286 43.5238C52.0311 44.807 53.3092 45.45 54.9331 45.45V45.2ZM51.3331 43.38L51.5384 43.2372C50.7269 42.0707 50.3031 40.3236 50.3031 37.96H50.0531H49.8031C49.8031 40.3697 50.2327 42.2359 51.1279 43.5228L51.3331 43.38ZM50.0531 37.96H50.3031C50.3031 35.5961 50.727 33.8564 51.5376 32.7038L51.3331 32.56L51.1286 32.4162C50.2326 33.6902 49.8031 35.5506 49.8031 37.96H50.0531ZM51.3331 32.56L51.5384 32.7028C52.343 31.546 53.4649 30.97 54.9331 30.97V30.72V30.47C53.308 30.47 52.0299 31.1206 51.1279 32.4172L51.3331 32.56ZM54.9331 32.5V32.25C54.4308 32.25 53.9793 32.3726 53.5877 32.6248C53.1974 32.8763 52.8805 33.2476 52.6315 33.7242L52.8531 33.84L53.0747 33.9558C53.2924 33.539 53.5556 33.2403 53.8585 33.0452C54.1603 32.8508 54.5154 32.75 54.9331 32.75V32.5ZM52.8531 33.84L52.6323 33.7229C52.1362 34.6584 51.9031 36.0823 51.9031 37.96H52.1531H52.4031C52.4031 36.1043 52.6367 34.7816 53.074 33.9571L52.8531 33.84ZM52.1531 37.96H51.9031C51.9031 39.8381 52.1363 41.2678 52.6315 42.2158L52.8531 42.1L53.0747 41.9842C52.6366 41.1456 52.4031 39.8152 52.4031 37.96H52.1531ZM52.8531 42.1L52.6323 42.2171C52.8816 42.6873 53.1988 43.0534 53.5892 43.3011C53.9806 43.5495 54.4316 43.67 54.9331 43.67V43.42V43.17C54.5147 43.17 54.159 43.0705 53.8571 42.8789C53.5541 42.6866 53.2913 42.3927 53.074 41.9829L52.8531 42.1ZM54.9331 43.42V43.67C55.4347 43.67 55.8857 43.5495 56.2771 43.3011C56.6674 43.0534 56.9846 42.6873 57.234 42.2171L57.0131 42.1L56.7923 41.9829C56.5749 42.3927 56.3121 42.6866 56.0092 42.8789C55.7073 43.0705 55.3516 43.17 54.9331 43.17V43.42ZM57.0131 42.1L57.2347 42.2158C57.7299 41.2678 57.9631 39.8381 57.9631 37.96H57.7131H57.4631C57.4631 39.8152 57.2297 41.1456 56.7915 41.9842L57.0131 42.1ZM57.7131 37.96H57.9631C57.9631 36.0823 57.7301 34.6584 57.234 33.7229L57.0131 33.84L56.7923 33.9571C57.2295 34.7816 57.4631 36.1043 57.4631 37.96H57.7131ZM57.0131 33.84L57.2347 33.7242C56.9857 33.2476 56.6689 32.8763 56.2785 32.6248C55.8869 32.3726 55.4354 32.25 54.9331 32.25V32.5V32.75C55.3508 32.75 55.706 32.8508 56.0077 33.0452C56.3107 33.2403 56.5738 33.539 56.7915 33.9558L57.0131 33.84Z" fill="#25835C"/>
</g>
<defs>
<clipPath id="clip0_5993_28120">
<rect width="82" height="60" fill="white"/>
</clipPath>
</defs>
</svg>
