<svg width="82" height="60" viewBox="0 0 82 60" fill="none" xmlns="http://www.w3.org/2000/svg">
<g clip-path="url(#clip0_5993_28096)">
<path d="M0 60H82V0H72.8889V9.14286H63.7778V18.2857H54.6667V9.14286H45.5556V0H36.4444V9.14286H27.3333V18.2857H18.2222V9.14286H9.11111V0H0V60Z" fill="#3DDB99"/>
<path d="M33.7061 43.22V45H24.9461V30.92H26.9661V43.22H33.7061ZM37.2977 45L33.6977 35.38H35.7377L38.4377 42.78L41.1177 35.38H43.1577L39.5577 45H37.2977ZM43.3602 42.14H45.7802V45H43.3602V42.14ZM53.175 38.04C53.7217 37.3867 54.1017 36.86 54.315 36.46C54.5283 36.06 54.635 35.6133 54.635 35.12C54.635 34.36 54.4083 33.7333 53.955 33.24C53.5017 32.7467 52.9217 32.5 52.215 32.5C51.5083 32.5 50.9217 32.7533 50.455 33.26C50.0017 33.7533 49.775 34.3933 49.775 35.18C49.775 35.7 49.8817 36.1667 50.095 36.58C50.3217 36.98 50.6283 37.2933 51.015 37.52L49.835 38.94C49.195 38.54 48.6883 38.0067 48.315 37.34C47.9417 36.6733 47.755 35.9533 47.755 35.18C47.755 34.38 47.9483 33.64 48.335 32.96C48.7217 32.28 49.255 31.74 49.935 31.34C50.615 30.9267 51.375 30.72 52.215 30.72C53.055 30.72 53.8083 30.92 54.475 31.32C55.155 31.72 55.6883 32.26 56.075 32.94C56.4617 33.6067 56.655 34.3333 56.655 35.12C56.655 35.7867 56.5083 36.4133 56.215 37C55.935 37.5733 55.4283 38.2933 54.695 39.16L51.315 43.2H56.555V45H47.475V44.9L53.175 38.04Z" fill="#25835C"/>
<path d="M33.7061 43.22H33.9561V42.97H33.7061V43.22ZM33.7061 45V45.25H33.9561V45H33.7061ZM24.9461 45H24.6961V45.25H24.9461V45ZM24.9461 30.92V30.67H24.6961V30.92H24.9461ZM26.9661 30.92H27.2161V30.67H26.9661V30.92ZM26.9661 43.22H26.7161V43.47H26.9661V43.22ZM33.7061 43.22H33.4561V45H33.7061H33.9561V43.22H33.7061ZM33.7061 45V44.75H24.9461V45V45.25H33.7061V45ZM24.9461 45H25.1961V30.92H24.9461H24.6961V45H24.9461ZM24.9461 30.92V31.17H26.9661V30.92V30.67H24.9461V30.92ZM26.9661 30.92H26.7161V43.22H26.9661H27.2161V30.92H26.9661ZM26.9661 43.22V43.47H33.7061V43.22V42.97H26.9661V43.22ZM37.2977 45L37.0635 45.0876L37.1243 45.25H37.2977V45ZM33.6977 35.38V35.13H33.3372L33.4635 35.4676L33.6977 35.38ZM35.7377 35.38L35.9725 35.2943L35.9126 35.13H35.7377V35.38ZM38.4377 42.78L38.2028 42.8657L38.4385 43.5118L38.6727 42.8651L38.4377 42.78ZM41.1177 35.38V35.13H40.9423L40.8826 35.2949L41.1177 35.38ZM43.1577 35.38L43.3918 35.4676L43.5181 35.13H43.1577V35.38ZM39.5577 45V45.25H39.731L39.7918 45.0876L39.5577 45ZM37.2977 45L37.5318 44.9124L33.9318 35.2924L33.6977 35.38L33.4635 35.4676L37.0635 45.0876L37.2977 45ZM33.6977 35.38V35.63H35.7377V35.38V35.13H33.6977V35.38ZM35.7377 35.38L35.5028 35.4657L38.2028 42.8657L38.4377 42.78L38.6725 42.6943L35.9725 35.2943L35.7377 35.38ZM38.4377 42.78L38.6727 42.8651L41.3527 35.4651L41.1177 35.38L40.8826 35.2949L38.2026 42.6949L38.4377 42.78ZM41.1177 35.38V35.63H43.1577V35.38V35.13H41.1177V35.38ZM43.1577 35.38L42.9235 35.2924L39.3235 44.9124L39.5577 45L39.7918 45.0876L43.3918 35.4676L43.1577 35.38ZM39.5577 45V44.75H37.2977V45V45.25H39.5577V45ZM43.3602 42.14V41.89H43.1102V42.14H43.3602ZM45.7802 42.14H46.0302V41.89H45.7802V42.14ZM45.7802 45V45.25H46.0302V45H45.7802ZM43.3602 45H43.1102V45.25H43.3602V45ZM43.3602 42.14V42.39H45.7802V42.14V41.89H43.3602V42.14ZM45.7802 42.14H45.5302V45H45.7802H46.0302V42.14H45.7802ZM45.7802 45V44.75H43.3602V45V45.25H45.7802V45ZM43.3602 45H43.6102V42.14H43.3602H43.1102V45H43.3602ZM53.175 38.04L52.9833 37.8796L52.9827 37.8802L53.175 38.04ZM54.315 36.46L54.0944 36.3424V36.3424L54.315 36.46ZM53.955 33.24L54.1391 33.0708V33.0708L53.955 33.24ZM50.455 33.26L50.2711 33.0906L50.2709 33.0908L50.455 33.26ZM50.095 36.58L49.8727 36.6947L49.8775 36.7033L50.095 36.58ZM51.015 37.52L51.2073 37.6798L51.3955 37.4533L51.1414 37.3043L51.015 37.52ZM49.835 38.94L49.7025 39.152L49.8877 39.2677L50.0273 39.0998L49.835 38.94ZM48.315 37.34L48.5331 37.2178V37.2178L48.315 37.34ZM48.335 32.96L48.1177 32.8364V32.8364L48.335 32.96ZM49.935 31.34L50.0618 31.5555L50.0649 31.5536L49.935 31.34ZM54.475 31.32L54.3464 31.5344L54.3482 31.5355L54.475 31.32ZM56.075 32.94L55.8577 33.0636L55.8587 33.0654L56.075 32.94ZM56.215 37L55.9914 36.8882L55.9904 36.8903L56.215 37ZM54.695 39.16L54.5042 38.9985L54.5033 38.9996L54.695 39.16ZM51.315 43.2L51.1233 43.0396L50.7799 43.45H51.315V43.2ZM56.555 43.2H56.805V42.95H56.555V43.2ZM56.555 45V45.25H56.805V45H56.555ZM47.475 45H47.225V45.25H47.475V45ZM47.475 44.9L47.2827 44.7402L47.225 44.8097V44.9H47.475ZM53.175 38.04L53.3667 38.2004C53.9166 37.5433 54.3099 37.0008 54.5356 36.5776L54.315 36.46L54.0944 36.3424C53.8934 36.7192 53.5267 37.2301 52.9833 37.8796L53.175 38.04ZM54.315 36.46L54.5356 36.5776C54.7699 36.1383 54.885 35.6507 54.885 35.12H54.635H54.385C54.385 35.576 54.2868 35.9817 54.0944 36.3424L54.315 36.46ZM54.635 35.12H54.885C54.885 34.3064 54.6406 33.6166 54.1391 33.0708L53.955 33.24L53.7709 33.4092C54.1761 33.8501 54.385 34.4136 54.385 35.12H54.635ZM53.955 33.24L54.1391 33.0708C53.6356 32.5229 52.9873 32.25 52.215 32.25V32.5V32.75C52.856 32.75 53.3678 32.9704 53.7709 33.4092L53.955 33.24ZM52.215 32.5V32.25C51.4405 32.25 50.7865 32.5311 50.2711 33.0906L50.455 33.26L50.6389 33.4294C51.0568 32.9756 51.5761 32.75 52.215 32.75V32.5ZM50.455 33.26L50.2709 33.0908C49.7679 33.6382 49.525 34.3423 49.525 35.18H49.775H50.025C50.025 34.4444 50.2354 33.8685 50.6391 33.4292L50.455 33.26ZM49.775 35.18H49.525C49.525 35.7351 49.6391 36.2419 49.8728 36.6947L50.095 36.58L50.3172 36.4653C50.1242 36.0915 50.025 35.6649 50.025 35.18H49.775ZM50.095 36.58L49.8775 36.7033C50.1253 37.1405 50.4629 37.4862 50.8886 37.7357L51.015 37.52L51.1414 37.3043C50.7937 37.1005 50.5181 36.8195 50.3125 36.4567L50.095 36.58ZM51.015 37.52L50.8227 37.3602L49.6427 38.7802L49.835 38.94L50.0273 39.0998L51.2073 37.6798L51.015 37.52ZM49.835 38.94L49.9675 38.728C49.3636 38.3506 48.8862 37.8483 48.5331 37.2178L48.315 37.34L48.0969 37.4622C48.4905 38.165 49.0264 38.7294 49.7025 39.152L49.835 38.94ZM48.315 37.34L48.5331 37.2178C48.181 36.589 48.005 35.9111 48.005 35.18H47.755H47.505C47.505 35.9956 47.7024 36.7577 48.0969 37.4622L48.315 37.34ZM47.755 35.18H48.005C48.005 34.4223 48.1876 33.725 48.5523 33.0836L48.335 32.96L48.1177 32.8364C47.7091 33.555 47.505 34.3377 47.505 35.18H47.755ZM48.335 32.96L48.5523 33.0836C48.9172 32.4419 49.4191 31.9335 50.0618 31.5555L49.935 31.34L49.8082 31.1245C49.0909 31.5465 48.5262 32.1181 48.1177 32.8364L48.335 32.96ZM49.935 31.34L50.0649 31.5536C50.7035 31.1654 51.4181 30.97 52.215 30.97V30.72V30.47C51.3319 30.47 50.5265 30.6879 49.8051 31.1264L49.935 31.34ZM52.215 30.72V30.97C53.0135 30.97 53.7217 31.1596 54.3464 31.5344L54.475 31.32L54.6036 31.1056C53.895 30.6804 53.0965 30.47 52.215 30.47V30.72ZM54.475 31.32L54.3482 31.5355C54.9909 31.9135 55.4928 32.4219 55.8577 33.0636L56.075 32.94L56.2923 32.8164C55.8838 32.0981 55.3191 31.5265 54.6018 31.1045L54.475 31.32ZM56.075 32.94L55.8587 33.0654C56.2228 33.6932 56.405 34.3764 56.405 35.12H56.655H56.905C56.905 34.2902 56.7005 33.5202 56.2913 32.8146L56.075 32.94ZM56.655 35.12H56.405C56.405 35.7485 56.2671 36.3368 55.9914 36.8882L56.215 37L56.4386 37.1118C56.7496 36.4898 56.905 35.8248 56.905 35.12H56.655ZM56.215 37L55.9904 36.8903C55.7239 37.436 55.2328 38.1374 54.5042 38.9985L54.695 39.16L54.8858 39.3215C55.6239 38.4492 56.1461 37.7107 56.4396 37.1097L56.215 37ZM54.695 39.16L54.5033 38.9996L51.1233 43.0396L51.315 43.2L51.5067 43.3604L54.8867 39.3204L54.695 39.16ZM51.315 43.2V43.45H56.555V43.2V42.95H51.315V43.2ZM56.555 43.2H56.305V45H56.555H56.805V43.2H56.555ZM56.555 45V44.75H47.475V45V45.25H56.555V45ZM47.475 45H47.725V44.9H47.475H47.225V45H47.475ZM47.475 44.9L47.6673 45.0598L53.3673 38.1998L53.175 38.04L52.9827 37.8802L47.2827 44.7402L47.475 44.9Z" fill="#25835C"/>
</g>
<defs>
<clipPath id="clip0_5993_28096">
<rect width="82" height="60" fill="white"/>
</clipPath>
</defs>
</svg>
