<svg width="82" height="60" viewBox="0 0 82 60" fill="none" xmlns="http://www.w3.org/2000/svg">
<g clip-path="url(#clip0_5993_28099)">
<path d="M0 60H82V0H72.8889V9.14286H63.7778V18.2857H54.6667V9.14286H45.5556V0H36.4444V9.14286H27.3333V18.2857H18.2222V9.14286H9.11111V0H0V60Z" fill="#3DDB99"/>
<path d="M33.3838 43.22V45H24.6238V30.92H26.6438V43.22H33.3838ZM36.9754 45L33.3754 35.38H35.4154L38.1154 42.78L40.7954 35.38H42.8354L39.2354 45H36.9754ZM43.0379 42.14H45.4579V45H43.0379V42.14ZM56.8727 30.92V31.02L53.1327 36.18C54.1994 36.3267 55.0594 36.8133 55.7127 37.64C56.3661 38.4533 56.6927 39.4267 56.6927 40.56C56.6927 41.4133 56.4861 42.1933 56.0727 42.9C55.6594 43.6067 55.0927 44.1667 54.3727 44.58C53.6527 44.9933 52.8527 45.2 51.9727 45.2C51.0927 45.2 50.2927 44.9933 49.5727 44.58C48.8527 44.1667 48.2861 43.6067 47.8727 42.9C47.4594 42.18 47.2527 41.3933 47.2527 40.54H49.3527C49.3527 41.3667 49.5994 42.04 50.0927 42.56C50.5994 43.0667 51.2261 43.32 51.9727 43.32C52.7194 43.32 53.3394 43.0667 53.8327 42.56C54.3394 42.0533 54.5927 41.3867 54.5927 40.56C54.5927 39.7333 54.3394 39.0667 53.8327 38.56C53.3394 38.0533 52.7194 37.8 51.9727 37.8H49.8727V37.72L53.3127 32.72H48.0927V30.92H56.8727Z" fill="#25835C"/>
<path d="M33.3838 43.22H33.6338V42.97H33.3838V43.22ZM33.3838 45V45.25H33.6338V45H33.3838ZM24.6238 45H24.3738V45.25H24.6238V45ZM24.6238 30.92V30.67H24.3738V30.92H24.6238ZM26.6438 30.92H26.8938V30.67H26.6438V30.92ZM26.6438 43.22H26.3938V43.47H26.6438V43.22ZM33.3838 43.22H33.1338V45H33.3838H33.6338V43.22H33.3838ZM33.3838 45V44.75H24.6238V45V45.25H33.3838V45ZM24.6238 45H24.8738V30.92H24.6238H24.3738V45H24.6238ZM24.6238 30.92V31.17H26.6438V30.92V30.67H24.6238V30.92ZM26.6438 30.92H26.3938V43.22H26.6438H26.8938V30.92H26.6438ZM26.6438 43.22V43.47H33.3838V43.22V42.97H26.6438V43.22ZM36.9754 45L36.7412 45.0876L36.802 45.25H36.9754V45ZM33.3754 35.38V35.13H33.0149L33.1412 35.4676L33.3754 35.38ZM35.4154 35.38L35.6502 35.2943L35.5903 35.13H35.4154V35.38ZM38.1154 42.78L37.8805 42.8657L38.1163 43.5118L38.3505 42.8651L38.1154 42.78ZM40.7954 35.38V35.13H40.62L40.5603 35.2949L40.7954 35.38ZM42.8354 35.38L43.0695 35.4676L43.1959 35.13H42.8354V35.38ZM39.2354 45V45.25H39.4088L39.4695 45.0876L39.2354 45ZM36.9754 45L37.2095 44.9124L33.6095 35.2924L33.3754 35.38L33.1412 35.4676L36.7412 45.0876L36.9754 45ZM33.3754 35.38V35.63H35.4154V35.38V35.13H33.3754V35.38ZM35.4154 35.38L35.1805 35.4657L37.8805 42.8657L38.1154 42.78L38.3502 42.6943L35.6502 35.2943L35.4154 35.38ZM38.1154 42.78L38.3505 42.8651L41.0305 35.4651L40.7954 35.38L40.5603 35.2949L37.8803 42.6949L38.1154 42.78ZM40.7954 35.38V35.63H42.8354V35.38V35.13H40.7954V35.38ZM42.8354 35.38L42.6012 35.2924L39.0012 44.9124L39.2354 45L39.4695 45.0876L43.0695 35.4676L42.8354 35.38ZM39.2354 45V44.75H36.9754V45V45.25H39.2354V45ZM43.0379 42.14V41.89H42.7879V42.14H43.0379ZM45.4579 42.14H45.7079V41.89H45.4579V42.14ZM45.4579 45V45.25H45.7079V45H45.4579ZM43.0379 45H42.7879V45.25H43.0379V45ZM43.0379 42.14V42.39H45.4579V42.14V41.89H43.0379V42.14ZM45.4579 42.14H45.2079V45H45.4579H45.7079V42.14H45.4579ZM45.4579 45V44.75H43.0379V45V45.25H45.4579V45ZM43.0379 45H43.2879V42.14H43.0379H42.7879V45H43.0379ZM56.8727 30.92H57.1227V30.67H56.8727V30.92ZM56.8727 31.02L57.0752 31.1667L57.1227 31.1011V31.02H56.8727ZM53.1327 36.18L52.9303 36.0333L52.6856 36.3709L53.0987 36.4277L53.1327 36.18ZM55.7127 37.64L55.5166 37.795L55.5178 37.7966L55.7127 37.64ZM56.0727 42.9L56.2885 43.0262V43.0262L56.0727 42.9ZM54.3727 44.58L54.4972 44.7968V44.7968L54.3727 44.58ZM49.5727 44.58L49.4483 44.7968V44.7968L49.5727 44.58ZM47.8727 42.9L47.6559 43.0245L47.6569 43.0262L47.8727 42.9ZM47.2527 40.54V40.29H47.0027V40.54H47.2527ZM49.3527 40.54H49.6027V40.29H49.3527V40.54ZM50.0927 42.56L49.9113 42.7321L49.916 42.7368L50.0927 42.56ZM53.8327 42.56L53.6559 42.3832L53.6536 42.3856L53.8327 42.56ZM53.8327 38.56L53.6536 38.7344L53.656 38.7368L53.8327 38.56ZM49.8727 37.8H49.6227V38.05H49.8727V37.8ZM49.8727 37.72L49.6668 37.5783L49.6227 37.6423V37.72H49.8727ZM53.3127 32.72L53.5187 32.8617L53.7882 32.47H53.3127V32.72ZM48.0927 32.72H47.8427V32.97H48.0927V32.72ZM48.0927 30.92V30.67H47.8427V30.92H48.0927ZM56.8727 30.92H56.6227V31.02H56.8727H57.1227V30.92H56.8727ZM56.8727 31.02L56.6703 30.8733L52.9303 36.0333L53.1327 36.18L53.3352 36.3267L57.0752 31.1667L56.8727 31.02ZM53.1327 36.18L53.0987 36.4277C54.1029 36.5658 54.9043 37.0202 55.5166 37.795L55.7127 37.64L55.9089 37.485C55.2145 36.6064 54.2959 36.0876 53.1668 35.9323L53.1327 36.18ZM55.7127 37.64L55.5178 37.7966C56.1323 38.5616 56.4427 39.4784 56.4427 40.56H56.6927H56.9427C56.9427 39.375 56.5998 38.3451 55.9076 37.4834L55.7127 37.64ZM56.6927 40.56H56.4427C56.4427 41.3709 56.2469 42.1071 55.8569 42.7738L56.0727 42.9L56.2885 43.0262C56.7252 42.2796 56.9427 41.4557 56.9427 40.56H56.6927ZM56.0727 42.9L55.8569 42.7738C55.4659 43.4422 54.931 43.9712 54.2483 44.3632L54.3727 44.58L54.4972 44.7968C55.2545 44.3621 55.8529 43.7711 56.2885 43.0262L56.0727 42.9ZM54.3727 44.58L54.2483 44.3632C53.5684 44.7535 52.8118 44.95 51.9727 44.95V45.2V45.45C52.8937 45.45 53.737 45.2332 54.4972 44.7968L54.3727 44.58ZM51.9727 45.2V44.95C51.1337 44.95 50.377 44.7535 49.6972 44.3632L49.5727 44.58L49.4483 44.7968C50.2084 45.2332 51.0518 45.45 51.9727 45.45V45.2ZM49.5727 44.58L49.6972 44.3632C49.0145 43.9712 48.4795 43.4422 48.0885 42.7738L47.8727 42.9L47.6569 43.0262C48.0926 43.7711 48.691 44.3621 49.4483 44.7968L49.5727 44.58ZM47.8727 42.9L48.0895 42.7755C47.6986 42.0945 47.5027 41.3509 47.5027 40.54H47.2527H47.0027C47.0027 41.4357 47.2202 42.2655 47.6559 43.0245L47.8727 42.9ZM47.2527 40.54V40.79H49.3527V40.54V40.29H47.2527V40.54ZM49.3527 40.54H49.1027C49.1027 41.4201 49.3672 42.1585 49.9114 42.7321L50.0927 42.56L50.2741 42.3879C49.8316 41.9215 49.6027 41.3132 49.6027 40.54H49.3527ZM50.0927 42.56L49.916 42.7368C50.4717 43.2925 51.1629 43.57 51.9727 43.57V43.32V43.07C51.2893 43.07 50.7271 42.8409 50.2695 42.3832L50.0927 42.56ZM51.9727 43.32V43.57C52.7827 43.57 53.4686 43.2923 54.0119 42.7344L53.8327 42.56L53.6536 42.3856C53.2102 42.841 52.6561 43.07 51.9727 43.07V43.32ZM53.8327 42.56L54.0095 42.7368C54.5703 42.176 54.8427 41.4419 54.8427 40.56H54.5927H54.3427C54.3427 41.3314 54.1085 41.9307 53.656 42.3832L53.8327 42.56ZM54.5927 40.56H54.8427C54.8427 39.6781 54.5703 38.944 54.0095 38.3832L53.8327 38.56L53.656 38.7368C54.1085 39.1893 54.3427 39.7886 54.3427 40.56H54.5927ZM53.8327 38.56L54.0119 38.3856C53.4686 37.8277 52.7827 37.55 51.9727 37.55V37.8V38.05C52.6561 38.05 53.2102 38.279 53.6536 38.7344L53.8327 38.56ZM51.9727 37.8V37.55H49.8727V37.8V38.05H51.9727V37.8ZM49.8727 37.8H50.1227V37.72H49.8727H49.6227V37.8H49.8727ZM49.8727 37.72L50.0787 37.8617L53.5187 32.8617L53.3127 32.72L53.1068 32.5783L49.6668 37.5783L49.8727 37.72ZM53.3127 32.72V32.47H48.0927V32.72V32.97H53.3127V32.72ZM48.0927 32.72H48.3427V30.92H48.0927H47.8427V32.72H48.0927ZM48.0927 30.92V31.17H56.8727V30.92V30.67H48.0927V30.92Z" fill="#25835C"/>
</g>
<defs>
<clipPath id="clip0_5993_28099">
<rect width="82" height="60" fill="white"/>
</clipPath>
</defs>
</svg>
