<svg width="82" height="60" viewBox="0 0 82 60" fill="none" xmlns="http://www.w3.org/2000/svg">
<g clip-path="url(#clip0_5993_28102)">
<path d="M0 60H82V0H72.8889V9.14286H63.7778V18.2857H54.6667V9.14286H45.5556V0H36.4444V9.14286H27.3333V18.2857H18.2222V9.14286H9.11111V0H0V60Z" fill="#3DDB99"/>
<path d="M32.6592 43.22V45H23.8992V30.92H25.9192V43.22H32.6592ZM36.2508 45L32.6508 35.38H34.6908L37.3908 42.78L40.0708 35.38H42.1108L38.5108 45H36.2508ZM42.3133 42.14H44.7333V45H42.3133V42.14ZM53.1881 42H46.1281V41.9L55.0081 30.58H55.1081V40.24H56.9081V42H55.1081V45H53.1881V42ZM53.1881 40.24V35.64L49.6481 40.24H53.1881Z" fill="#25835C"/>
<path d="M32.6592 43.22H32.9092V42.97H32.6592V43.22ZM32.6592 45V45.25H32.9092V45H32.6592ZM23.8992 45H23.6492V45.25H23.8992V45ZM23.8992 30.92V30.67H23.6492V30.92H23.8992ZM25.9192 30.92H26.1692V30.67H25.9192V30.92ZM25.9192 43.22H25.6692V43.47H25.9192V43.22ZM32.6592 43.22H32.4092V45H32.6592H32.9092V43.22H32.6592ZM32.6592 45V44.75H23.8992V45V45.25H32.6592V45ZM23.8992 45H24.1492V30.92H23.8992H23.6492V45H23.8992ZM23.8992 30.92V31.17H25.9192V30.92V30.67H23.8992V30.92ZM25.9192 30.92H25.6692V43.22H25.9192H26.1692V30.92H25.9192ZM25.9192 43.22V43.47H32.6592V43.22V42.97H25.9192V43.22ZM36.2508 45L36.0166 45.0876L36.0774 45.25H36.2508V45ZM32.6508 35.38V35.13H32.2903L32.4166 35.4676L32.6508 35.38ZM34.6908 35.38L34.9256 35.2943L34.8657 35.13H34.6908V35.38ZM37.3908 42.78L37.1559 42.8657L37.3917 43.5118L37.6258 42.8651L37.3908 42.78ZM40.0708 35.38V35.13H39.8954L39.8357 35.2949L40.0708 35.38ZM42.1108 35.38L42.3449 35.4676L42.4713 35.13H42.1108V35.38ZM38.5108 45V45.25H38.6842L38.7449 45.0876L38.5108 45ZM36.2508 45L36.4849 44.9124L32.8849 35.2924L32.6508 35.38L32.4166 35.4676L36.0166 45.0876L36.2508 45ZM32.6508 35.38V35.63H34.6908V35.38V35.13H32.6508V35.38ZM34.6908 35.38L34.4559 35.4657L37.1559 42.8657L37.3908 42.78L37.6256 42.6943L34.9256 35.2943L34.6908 35.38ZM37.3908 42.78L37.6258 42.8651L40.3058 35.4651L40.0708 35.38L39.8357 35.2949L37.1557 42.6949L37.3908 42.78ZM40.0708 35.38V35.63H42.1108V35.38V35.13H40.0708V35.38ZM42.1108 35.38L41.8766 35.2924L38.2766 44.9124L38.5108 45L38.7449 45.0876L42.3449 35.4676L42.1108 35.38ZM38.5108 45V44.75H36.2508V45V45.25H38.5108V45ZM42.3133 42.14V41.89H42.0633V42.14H42.3133ZM44.7333 42.14H44.9833V41.89H44.7333V42.14ZM44.7333 45V45.25H44.9833V45H44.7333ZM42.3133 45H42.0633V45.25H42.3133V45ZM42.3133 42.14V42.39H44.7333V42.14V41.89H42.3133V42.14ZM44.7333 42.14H44.4833V45H44.7333H44.9833V42.14H44.7333ZM44.7333 45V44.75H42.3133V45V45.25H44.7333V45ZM42.3133 45H42.5633V42.14H42.3133H42.0633V45H42.3133ZM53.1881 42H53.4381V41.75H53.1881V42ZM46.1281 42H45.8781V42.25H46.1281V42ZM46.1281 41.9L45.9314 41.7457L45.8781 41.8136V41.9H46.1281ZM55.0081 30.58V30.33H54.8865L54.8114 30.4257L55.0081 30.58ZM55.1081 30.58H55.3581V30.33H55.1081V30.58ZM55.1081 40.24H54.8581V40.49H55.1081V40.24ZM56.9081 40.24H57.1581V39.99H56.9081V40.24ZM56.9081 42V42.25H57.1581V42H56.9081ZM55.1081 42V41.75H54.8581V42H55.1081ZM55.1081 45V45.25H55.3581V45H55.1081ZM53.1881 45H52.9381V45.25H53.1881V45ZM53.1881 40.24V40.49H53.4381V40.24H53.1881ZM53.1881 35.64H53.4381V34.9052L52.99 35.4875L53.1881 35.64ZM49.6481 40.24L49.45 40.0875L49.1403 40.49H49.6481V40.24ZM53.1881 42V41.75H46.1281V42V42.25H53.1881V42ZM46.1281 42H46.3781V41.9H46.1281H45.8781V42H46.1281ZM46.1281 41.9L46.3248 42.0543L55.2048 30.7343L55.0081 30.58L54.8114 30.4257L45.9314 41.7457L46.1281 41.9ZM55.0081 30.58V30.83H55.1081V30.58V30.33H55.0081V30.58ZM55.1081 30.58H54.8581V40.24H55.1081H55.3581V30.58H55.1081ZM55.1081 40.24V40.49H56.9081V40.24V39.99H55.1081V40.24ZM56.9081 40.24H56.6581V42H56.9081H57.1581V40.24H56.9081ZM56.9081 42V41.75H55.1081V42V42.25H56.9081V42ZM55.1081 42H54.8581V45H55.1081H55.3581V42H55.1081ZM55.1081 45V44.75H53.1881V45V45.25H55.1081V45ZM53.1881 45H53.4381V42H53.1881H52.9381V45H53.1881ZM53.1881 40.24H53.4381V35.64H53.1881H52.9381V40.24H53.1881ZM53.1881 35.64L52.99 35.4875L49.45 40.0875L49.6481 40.24L49.8462 40.3925L53.3862 35.7925L53.1881 35.64ZM49.6481 40.24V40.49H53.1881V40.24V39.99H49.6481V40.24Z" fill="#25835C"/>
</g>
<defs>
<clipPath id="clip0_5993_28102">
<rect width="82" height="60" fill="white"/>
</clipPath>
</defs>
</svg>
