<svg width="82" height="60" viewBox="0 0 82 60" fill="none" xmlns="http://www.w3.org/2000/svg">
<g clip-path="url(#clip0_5993_28105)">
<path d="M0 60H82V0H72.8889V9.14286H63.7778V18.2857H54.6667V9.14286H45.5556V0H36.4444V9.14286H27.3333V18.2857H18.2222V9.14286H9.11111V0H0V60Z" fill="#3DDB99"/>
<path d="M33.4229 43.22V45H24.6629V30.92H26.6829V43.22H33.4229ZM37.0145 45L33.4145 35.38H35.4545L38.1545 42.78L40.8345 35.38H42.8745L39.2745 45H37.0145ZM43.077 42.14H45.497V45H43.077V42.14ZM56.1118 32.72H51.2918L50.4118 36.36C50.9985 35.9733 51.6851 35.78 52.4718 35.78C53.2585 35.78 53.9851 35.9667 54.6518 36.34C55.3185 36.7 55.8451 37.2333 56.2318 37.94C56.6318 38.6333 56.8318 39.46 56.8318 40.42C56.8318 41.3267 56.6251 42.1467 56.2118 42.88C55.7985 43.6 55.2318 44.1667 54.5118 44.58C53.7918 44.9933 52.9918 45.2 52.1118 45.2C51.2318 45.2 50.4318 44.9933 49.7118 44.58C48.9918 44.1667 48.4251 43.6067 48.0118 42.9C47.5985 42.18 47.3918 41.3933 47.3918 40.54H49.4918C49.4918 41.3667 49.7385 42.04 50.2318 42.56C50.7385 43.0667 51.3651 43.32 52.1118 43.32C52.8718 43.32 53.4985 43.0667 53.9918 42.56C54.4985 42.04 54.7518 41.3267 54.7518 40.42C54.7518 39.54 54.4985 38.8467 53.9918 38.34C53.4985 37.8333 52.8718 37.58 52.1118 37.58C51.6585 37.58 51.2385 37.68 50.8518 37.88C50.4785 38.0667 50.1651 38.3333 49.9118 38.68L48.1518 37.9L49.7118 30.92H56.1118V32.72Z" fill="#25835C"/>
<path d="M33.4229 43.22H33.6729V42.97H33.4229V43.22ZM33.4229 45V45.25H33.6729V45H33.4229ZM24.6629 45H24.4129V45.25H24.6629V45ZM24.6629 30.92V30.67H24.4129V30.92H24.6629ZM26.6829 30.92H26.9329V30.67H26.6829V30.92ZM26.6829 43.22H26.4329V43.47H26.6829V43.22ZM33.4229 43.22H33.1729V45H33.4229H33.6729V43.22H33.4229ZM33.4229 45V44.75H24.6629V45V45.25H33.4229V45ZM24.6629 45H24.9129V30.92H24.6629H24.4129V45H24.6629ZM24.6629 30.92V31.17H26.6829V30.92V30.67H24.6629V30.92ZM26.6829 30.92H26.4329V43.22H26.6829H26.9329V30.92H26.6829ZM26.6829 43.22V43.47H33.4229V43.22V42.97H26.6829V43.22ZM37.0145 45L36.7803 45.0876L36.8411 45.25H37.0145V45ZM33.4145 35.38V35.13H33.054L33.1803 35.4676L33.4145 35.38ZM35.4545 35.38L35.6893 35.2943L35.6294 35.13H35.4545V35.38ZM38.1545 42.78L37.9196 42.8657L38.1553 43.5118L38.3895 42.8651L38.1545 42.78ZM40.8345 35.38V35.13H40.6591L40.5994 35.2949L40.8345 35.38ZM42.8745 35.38L43.1086 35.4676L43.2349 35.13H42.8745V35.38ZM39.2745 45V45.25H39.4478L39.5086 45.0876L39.2745 45ZM37.0145 45L37.2486 44.9124L33.6486 35.2924L33.4145 35.38L33.1803 35.4676L36.7803 45.0876L37.0145 45ZM33.4145 35.38V35.63H35.4545V35.38V35.13H33.4145V35.38ZM35.4545 35.38L35.2196 35.4657L37.9196 42.8657L38.1545 42.78L38.3893 42.6943L35.6893 35.2943L35.4545 35.38ZM38.1545 42.78L38.3895 42.8651L41.0695 35.4651L40.8345 35.38L40.5994 35.2949L37.9194 42.6949L38.1545 42.78ZM40.8345 35.38V35.63H42.8745V35.38V35.13H40.8345V35.38ZM42.8745 35.38L42.6403 35.2924L39.0403 44.9124L39.2745 45L39.5086 45.0876L43.1086 35.4676L42.8745 35.38ZM39.2745 45V44.75H37.0145V45V45.25H39.2745V45ZM43.077 42.14V41.89H42.827V42.14H43.077ZM45.497 42.14H45.747V41.89H45.497V42.14ZM45.497 45V45.25H45.747V45H45.497ZM43.077 45H42.827V45.25H43.077V45ZM43.077 42.14V42.39H45.497V42.14V41.89H43.077V42.14ZM45.497 42.14H45.247V45H45.497H45.747V42.14H45.497ZM45.497 45V44.75H43.077V45V45.25H45.497V45ZM43.077 45H43.327V42.14H43.077H42.827V45H43.077ZM56.1118 32.72V32.97H56.3618V32.72H56.1118ZM51.2918 32.72V32.47H51.095L51.0488 32.6613L51.2918 32.72ZM50.4118 36.36L50.1688 36.3013L50.0197 36.9178L50.5494 36.5687L50.4118 36.36ZM54.6518 36.34L54.5296 36.5582L54.533 36.56L54.6518 36.34ZM56.2318 37.94L56.0124 38.06L56.0153 38.0649L56.2318 37.94ZM56.2118 42.88L56.4286 43.0045L56.4296 43.0028L56.2118 42.88ZM54.5118 44.58L54.6363 44.7968V44.7968L54.5118 44.58ZM49.7118 44.58L49.8363 44.3632V44.3632L49.7118 44.58ZM48.0118 42.9L47.795 43.0245L47.796 43.0262L48.0118 42.9ZM47.3918 40.54V40.29H47.1418V40.54H47.3918ZM49.4918 40.54H49.7418V40.29H49.4918V40.54ZM50.2318 42.56L50.0504 42.7321L50.055 42.7368L50.2318 42.56ZM53.9918 42.56L53.8127 42.3855L53.8127 42.3856L53.9918 42.56ZM53.9918 38.34L53.8127 38.5144L53.815 38.5168L53.9918 38.34ZM50.8518 37.88L50.9636 38.1036L50.9667 38.1021L50.8518 37.88ZM49.9118 38.68L49.8105 38.9086L49.9947 38.9902L50.1136 38.8275L49.9118 38.68ZM48.1518 37.9L47.9078 37.8455L47.8631 38.0455L48.0505 38.1286L48.1518 37.9ZM49.7118 30.92V30.67H49.5115L49.4678 30.8655L49.7118 30.92ZM56.1118 30.92H56.3618V30.67H56.1118V30.92ZM56.1118 32.72V32.47H51.2918V32.72V32.97H56.1118V32.72ZM51.2918 32.72L51.0488 32.6613L50.1688 36.3013L50.4118 36.36L50.6548 36.4187L51.5348 32.7787L51.2918 32.72ZM50.4118 36.36L50.5494 36.5687C51.0904 36.2121 51.728 36.03 52.4718 36.03V35.78V35.53C51.6423 35.53 50.9065 35.7345 50.2742 36.1513L50.4118 36.36ZM52.4718 35.78V36.03C53.217 36.03 53.9014 36.2063 54.5296 36.5581L54.6518 36.34L54.7739 36.1219C54.0688 35.727 53.2999 35.53 52.4718 35.53V35.78ZM54.6518 36.34L54.533 36.56C55.1545 36.8956 55.6474 37.3929 56.0125 38.06L56.2318 37.94L56.4511 37.82C56.0428 37.0738 55.4824 36.5044 54.7706 36.12L54.6518 36.34ZM56.2318 37.94L56.0153 38.0649C56.3893 38.7134 56.5818 39.4951 56.5818 40.42H56.8318H57.0818C57.0818 39.4249 56.8743 38.5533 56.4483 37.8151L56.2318 37.94ZM56.8318 40.42H56.5818C56.5818 41.2871 56.3846 42.0642 55.994 42.7572L56.2118 42.88L56.4296 43.0028C56.8657 42.2291 57.0818 41.3663 57.0818 40.42H56.8318ZM56.2118 42.88L55.995 42.7555C55.6037 43.4371 55.0689 43.9719 54.3873 44.3632L54.5118 44.58L54.6363 44.7968C55.3947 44.3614 55.9932 43.7629 56.4286 43.0045L56.2118 42.88ZM54.5118 44.58L54.3873 44.3632C53.7075 44.7535 52.9508 44.95 52.1118 44.95V45.2V45.45C53.0328 45.45 53.8761 45.2332 54.6363 44.7968L54.5118 44.58ZM52.1118 45.2V44.95C51.2728 44.95 50.5161 44.7535 49.8363 44.3632L49.7118 44.58L49.5873 44.7968C50.3475 45.2332 51.1908 45.45 52.1118 45.45V45.2ZM49.7118 44.58L49.8363 44.3632C49.1535 43.9712 48.6186 43.4422 48.2276 42.7738L48.0118 42.9L47.796 43.0262C48.2317 43.7711 48.8301 44.3621 49.5873 44.7968L49.7118 44.58ZM48.0118 42.9L48.2286 42.7755C47.8376 42.0945 47.6418 41.3509 47.6418 40.54H47.3918H47.1418C47.1418 41.4357 47.3593 42.2655 47.795 43.0245L48.0118 42.9ZM47.3918 40.54V40.79H49.4918V40.54V40.29H47.3918V40.54ZM49.4918 40.54H49.2418C49.2418 41.4201 49.5063 42.1585 50.0504 42.7321L50.2318 42.56L50.4132 42.3879C49.9707 41.9215 49.7418 41.3132 49.7418 40.54H49.4918ZM50.2318 42.56L50.055 42.7368C50.6107 43.2925 51.3019 43.57 52.1118 43.57V43.32V43.07C51.4283 43.07 50.8662 42.8409 50.4086 42.3832L50.2318 42.56ZM52.1118 43.32V43.57C52.9337 43.57 53.6268 43.2933 54.1709 42.7344L53.9918 42.56L53.8127 42.3856C53.3702 42.8401 52.8099 43.07 52.1118 43.07V43.32ZM53.9918 42.56L54.1709 42.7345C54.7337 42.1568 55.0018 41.3748 55.0018 40.42H54.7518H54.5018C54.5018 41.2786 54.2633 41.9232 53.8127 42.3855L53.9918 42.56ZM54.7518 40.42H55.0018C55.0018 39.4898 54.7324 38.727 54.1686 38.1632L53.9918 38.34L53.815 38.5168C54.2645 38.9663 54.5018 39.5902 54.5018 40.42H54.7518ZM53.9918 38.34L54.1709 38.1656C53.6268 37.6067 52.9337 37.33 52.1118 37.33V37.58V37.83C52.8099 37.83 53.3702 38.0599 53.8127 38.5144L53.9918 38.34ZM52.1118 37.58V37.33C51.6202 37.33 51.1606 37.4388 50.7369 37.6579L50.8518 37.88L50.9667 38.1021C51.3163 37.9212 51.6967 37.83 52.1118 37.83V37.58ZM50.8518 37.88L50.74 37.6564C50.33 37.8614 49.9861 38.1546 49.7099 38.5325L49.9118 38.68L50.1136 38.8275C50.3442 38.5121 50.627 38.2719 50.9636 38.1036L50.8518 37.88ZM49.9118 38.68L50.0131 38.4514L48.2531 37.6714L48.1518 37.9L48.0505 38.1286L49.8105 38.9086L49.9118 38.68ZM48.1518 37.9L48.3958 37.9545L49.9558 30.9745L49.7118 30.92L49.4678 30.8655L47.9078 37.8455L48.1518 37.9ZM49.7118 30.92V31.17H56.1118V30.92V30.67H49.7118V30.92ZM56.1118 30.92H55.8618V32.72H56.1118H56.3618V30.92H56.1118Z" fill="#25835C"/>
</g>
<defs>
<clipPath id="clip0_5993_28105">
<rect width="82" height="60" fill="white"/>
</clipPath>
</defs>
</svg>
