<svg width="82" height="60" viewBox="0 0 82 60" fill="none" xmlns="http://www.w3.org/2000/svg">
<g clip-path="url(#clip0_5993_28108)">
<path d="M0 60H82V0H72.8889V9.14286H63.7778V18.2857H54.6667V9.14286H45.5556V0H36.4444V9.14286H27.3333V18.2857H18.2222V9.14286H9.11111V0H0V60Z" fill="#3DDB99"/>
<path d="M33.4229 43.22V45H24.6629V30.92H26.6829V43.22H33.4229ZM37.0145 45L33.4145 35.38H35.4545L38.1545 42.78L40.8345 35.38H42.8745L39.2745 45H37.0145ZM43.077 42.14H45.497V45H43.077V42.14ZM52.4518 35.7C53.2651 35.7 54.0185 35.9 54.7118 36.3C55.4185 36.7 55.9785 37.26 56.3918 37.98C56.8185 38.6867 57.0318 39.4867 57.0318 40.38C57.0318 41.2867 56.8185 42.1067 56.3918 42.84C55.9785 43.5733 55.4051 44.1533 54.6718 44.58C53.9385 44.9933 53.1185 45.2 52.2118 45.2C51.3185 45.2 50.5051 44.9933 49.7718 44.58C49.0385 44.1533 48.4585 43.5733 48.0318 42.84C47.6051 42.0933 47.3918 41.2733 47.3918 40.38C47.3918 39.7933 47.4918 39.2467 47.6918 38.74C47.8918 38.2333 48.2651 37.58 48.8118 36.78L52.8518 30.92H55.2318L51.8518 35.76C52.0518 35.72 52.2518 35.7 52.4518 35.7ZM54.9518 40.38C54.9518 39.4733 54.6985 38.74 54.1918 38.18C53.6985 37.62 53.0385 37.34 52.2118 37.34C51.3851 37.34 50.7185 37.62 50.2118 38.18C49.7185 38.74 49.4718 39.4733 49.4718 40.38C49.4718 41.2867 49.7185 42.02 50.2118 42.58C50.7185 43.14 51.3851 43.42 52.2118 43.42C53.0385 43.42 53.6985 43.14 54.1918 42.58C54.6985 42.02 54.9518 41.2867 54.9518 40.38Z" fill="#25835C"/>
<path d="M33.4229 43.22H33.6729V42.97H33.4229V43.22ZM33.4229 45V45.25H33.6729V45H33.4229ZM24.6629 45H24.4129V45.25H24.6629V45ZM24.6629 30.92V30.67H24.4129V30.92H24.6629ZM26.6829 30.92H26.9329V30.67H26.6829V30.92ZM26.6829 43.22H26.4329V43.47H26.6829V43.22ZM33.4229 43.22H33.1729V45H33.4229H33.6729V43.22H33.4229ZM33.4229 45V44.75H24.6629V45V45.25H33.4229V45ZM24.6629 45H24.9129V30.92H24.6629H24.4129V45H24.6629ZM24.6629 30.92V31.17H26.6829V30.92V30.67H24.6629V30.92ZM26.6829 30.92H26.4329V43.22H26.6829H26.9329V30.92H26.6829ZM26.6829 43.22V43.47H33.4229V43.22V42.97H26.6829V43.22ZM37.0145 45L36.7803 45.0876L36.8411 45.25H37.0145V45ZM33.4145 35.38V35.13H33.054L33.1803 35.4676L33.4145 35.38ZM35.4545 35.38L35.6893 35.2943L35.6294 35.13H35.4545V35.38ZM38.1545 42.78L37.9196 42.8657L38.1553 43.5118L38.3895 42.8651L38.1545 42.78ZM40.8345 35.38V35.13H40.6591L40.5994 35.2949L40.8345 35.38ZM42.8745 35.38L43.1086 35.4676L43.2349 35.13H42.8745V35.38ZM39.2745 45V45.25H39.4478L39.5086 45.0876L39.2745 45ZM37.0145 45L37.2486 44.9124L33.6486 35.2924L33.4145 35.38L33.1803 35.4676L36.7803 45.0876L37.0145 45ZM33.4145 35.38V35.63H35.4545V35.38V35.13H33.4145V35.38ZM35.4545 35.38L35.2196 35.4657L37.9196 42.8657L38.1545 42.78L38.3893 42.6943L35.6893 35.2943L35.4545 35.38ZM38.1545 42.78L38.3895 42.8651L41.0695 35.4651L40.8345 35.38L40.5994 35.2949L37.9194 42.6949L38.1545 42.78ZM40.8345 35.38V35.63H42.8745V35.38V35.13H40.8345V35.38ZM42.8745 35.38L42.6403 35.2924L39.0403 44.9124L39.2745 45L39.5086 45.0876L43.1086 35.4676L42.8745 35.38ZM39.2745 45V44.75H37.0145V45V45.25H39.2745V45ZM43.077 42.14V41.89H42.827V42.14H43.077ZM45.497 42.14H45.747V41.89H45.497V42.14ZM45.497 45V45.25H45.747V45H45.497ZM43.077 45H42.827V45.25H43.077V45ZM43.077 42.14V42.39H45.497V42.14V41.89H43.077V42.14ZM45.497 42.14H45.247V45H45.497H45.747V42.14H45.497ZM45.497 45V44.75H43.077V45V45.25H45.497V45ZM43.077 45H43.327V42.14H43.077H42.827V45H43.077ZM54.7118 36.3L54.5869 36.5166L54.5886 36.5176L54.7118 36.3ZM56.3918 37.98L56.1749 38.1045L56.1778 38.1092L56.3918 37.98ZM56.3918 42.84L56.1757 42.7143L56.174 42.7172L56.3918 42.84ZM54.6718 44.58L54.7946 44.7978L54.7975 44.7961L54.6718 44.58ZM49.7718 44.58L49.6461 44.7961L49.649 44.7978L49.7718 44.58ZM48.0318 42.84L47.8147 42.964L47.8157 42.9657L48.0318 42.84ZM47.6918 38.74L47.4593 38.6482V38.6482L47.6918 38.74ZM48.8118 36.78L48.606 36.6381L48.6054 36.639L48.8118 36.78ZM52.8518 30.92V30.67H52.7205L52.646 30.7781L52.8518 30.92ZM55.2318 30.92L55.4368 31.0631L55.7113 30.67H55.2318V30.92ZM51.8518 35.76L51.6468 35.6169L51.2904 36.1272L51.9008 36.0051L51.8518 35.76ZM54.1918 38.18L54.0042 38.3453L54.0064 38.3477L54.1918 38.18ZM50.2118 38.18L50.0264 38.0123L50.0242 38.0147L50.2118 38.18ZM50.2118 42.58L50.0242 42.7453L50.0264 42.7477L50.2118 42.58ZM54.1918 42.58L54.0064 42.4123L54.0042 42.4147L54.1918 42.58ZM52.4518 35.7V35.95C53.222 35.95 53.9322 36.1388 54.5869 36.5165L54.7118 36.3L54.8367 36.0835C54.1048 35.6612 53.3082 35.45 52.4518 35.45V35.7ZM54.7118 36.3L54.5886 36.5176C55.2554 36.895 55.7834 37.4224 56.175 38.1045L56.3918 37.98L56.6086 37.8555C56.1735 37.0976 55.5815 36.505 54.8349 36.0824L54.7118 36.3ZM56.3918 37.98L56.1778 38.1092C56.579 38.7737 56.7818 39.5283 56.7818 40.38H57.0318H57.2818C57.2818 39.445 57.0579 38.5996 56.6058 37.8508L56.3918 37.98ZM57.0318 40.38H56.7818C56.7818 41.2456 56.5786 42.0217 56.1757 42.7143L56.3918 42.84L56.6079 42.9657C57.0583 42.1916 57.2818 41.3277 57.2818 40.38H57.0318ZM56.3918 42.84L56.174 42.7172C55.7827 43.4115 55.2413 43.9594 54.5461 44.3639L54.6718 44.58L54.7975 44.7961C55.569 44.3472 56.1742 43.7352 56.6096 42.9628L56.3918 42.84ZM54.6718 44.58L54.549 44.3622C53.856 44.7528 53.0789 44.95 52.2118 44.95V45.2V45.45C53.1581 45.45 54.0209 45.2339 54.7945 44.7978L54.6718 44.58ZM52.2118 45.2V44.95C51.3587 44.95 50.5881 44.7531 49.8946 44.3622L49.7718 44.58L49.649 44.7978C50.4221 45.2335 51.2782 45.45 52.2118 45.45V45.2ZM49.7718 44.58L49.8975 44.3639C49.2016 43.959 48.6528 43.4102 48.2479 42.7143L48.0318 42.84L47.8157 42.9657C48.2642 43.7365 48.8753 44.3476 49.6461 44.7961L49.7718 44.58ZM48.0318 42.84L48.2489 42.716C47.8446 42.0086 47.6418 41.2316 47.6418 40.38H47.3918H47.1418C47.1418 41.3151 47.3656 42.1781 47.8147 42.964L48.0318 42.84ZM47.3918 40.38H47.6418C47.6418 39.8223 47.7367 39.307 47.9243 38.8318L47.6918 38.74L47.4593 38.6482C47.2469 39.1863 47.1418 39.7643 47.1418 40.38H47.3918ZM47.6918 38.74L47.9243 38.8318C48.1142 38.3509 48.4753 37.7156 49.0182 36.921L48.8118 36.78L48.6054 36.639C48.055 37.4444 47.6694 38.1158 47.4593 38.6482L47.6918 38.74ZM48.8118 36.78L49.0176 36.9219L53.0576 31.0619L52.8518 30.92L52.646 30.7781L48.606 36.6381L48.8118 36.78ZM52.8518 30.92V31.17H55.2318V30.92V30.67H52.8518V30.92ZM55.2318 30.92L55.0268 30.7769L51.6468 35.6169L51.8518 35.76L52.0568 35.9031L55.4368 31.0631L55.2318 30.92ZM51.8518 35.76L51.9008 36.0051C52.085 35.9683 52.2686 35.95 52.4518 35.95V35.7V35.45C52.235 35.45 52.0186 35.4717 51.8028 35.5149L51.8518 35.76ZM54.9518 40.38H55.2018C55.2018 39.4245 54.9335 38.6271 54.3772 38.0123L54.1918 38.18L54.0064 38.3477C54.4635 38.8529 54.7018 39.5222 54.7018 40.38H54.9518ZM54.1918 38.18L54.3794 38.0147C53.8332 37.3947 53.1016 37.09 52.2118 37.09V37.34V37.59C52.9753 37.59 53.5638 37.8453 54.0042 38.3453L54.1918 38.18ZM52.2118 37.34V37.09C51.322 37.09 50.5853 37.3946 50.0264 38.0123L50.2118 38.18L50.3972 38.3477C50.8517 37.8454 51.4483 37.59 52.2118 37.59V37.34ZM50.2118 38.18L50.0242 38.0147C49.4824 38.6297 49.2218 39.4262 49.2218 40.38H49.4718H49.7218C49.7218 39.5205 49.9545 38.8503 50.3994 38.3453L50.2118 38.18ZM49.4718 40.38H49.2218C49.2218 41.3338 49.4824 42.1303 50.0242 42.7453L50.2118 42.58L50.3994 42.4147C49.9545 41.9097 49.7218 41.2395 49.7218 40.38H49.4718ZM50.2118 42.58L50.0264 42.7477C50.5853 43.3654 51.322 43.67 52.2118 43.67V43.42V43.17C51.4483 43.17 50.8517 42.9146 50.3972 42.4123L50.2118 42.58ZM52.2118 43.42V43.67C53.1016 43.67 53.8332 43.3653 54.3794 42.7453L54.1918 42.58L54.0042 42.4147C53.5638 42.9147 52.9753 43.17 52.2118 43.17V43.42ZM54.1918 42.58L54.3772 42.7477C54.9335 42.1329 55.2018 41.3355 55.2018 40.38H54.9518H54.7018C54.7018 41.2378 54.4635 41.9071 54.0064 42.4123L54.1918 42.58Z" fill="#25835C"/>
</g>
<defs>
<clipPath id="clip0_5993_28108">
<rect width="82" height="60" fill="white"/>
</clipPath>
</defs>
</svg>
