<svg width="82" height="60" viewBox="0 0 82 60" fill="none" xmlns="http://www.w3.org/2000/svg">
<g clip-path="url(#clip0_5993_28111)">
<path d="M0 60H82V0H72.8889V9.14286H63.7778V18.2857H54.6667V9.14286H45.5556V0H36.4444V9.14286H27.3333V18.2857H18.2222V9.14286H9.11111V0H0V60Z" fill="#3DDB99"/>
<path d="M33.4209 43.22V45H24.6609V30.92H26.6809V43.22H33.4209ZM37.0125 45L33.4125 35.38H35.4525L38.1525 42.78L40.8325 35.38H42.8725L39.2725 45H37.0125ZM43.075 42.14H45.495V45H43.075V42.14ZM53.4844 32.72H46.7844V30.92H56.5044V31.02L49.8444 45H47.6044L53.4844 32.72Z" fill="#25835C"/>
<path d="M33.4209 43.22H33.6709V42.97H33.4209V43.22ZM33.4209 45V45.25H33.6709V45H33.4209ZM24.6609 45H24.4109V45.25H24.6609V45ZM24.6609 30.92V30.67H24.4109V30.92H24.6609ZM26.6809 30.92H26.9309V30.67H26.6809V30.92ZM26.6809 43.22H26.4309V43.47H26.6809V43.22ZM33.4209 43.22H33.1709V45H33.4209H33.6709V43.22H33.4209ZM33.4209 45V44.75H24.6609V45V45.25H33.4209V45ZM24.6609 45H24.9109V30.92H24.6609H24.4109V45H24.6609ZM24.6609 30.92V31.17H26.6809V30.92V30.67H24.6609V30.92ZM26.6809 30.92H26.4309V43.22H26.6809H26.9309V30.92H26.6809ZM26.6809 43.22V43.47H33.4209V43.22V42.97H26.6809V43.22ZM37.0125 45L36.7784 45.0876L36.8391 45.25H37.0125V45ZM33.4125 35.38V35.13H33.052L33.1784 35.4676L33.4125 35.38ZM35.4525 35.38L35.6874 35.2943L35.6274 35.13H35.4525V35.38ZM38.1525 42.78L37.9176 42.8657L38.1534 43.5118L38.3876 42.8651L38.1525 42.78ZM40.8325 35.38V35.13H40.6572L40.5974 35.2949L40.8325 35.38ZM42.8725 35.38L43.1066 35.4676L43.233 35.13H42.8725V35.38ZM39.2725 45V45.25H39.4459L39.5066 45.0876L39.2725 45ZM37.0125 45L37.2466 44.9124L33.6466 35.2924L33.4125 35.38L33.1784 35.4676L36.7784 45.0876L37.0125 45ZM33.4125 35.38V35.63H35.4525V35.38V35.13H33.4125V35.38ZM35.4525 35.38L35.2176 35.4657L37.9176 42.8657L38.1525 42.78L38.3874 42.6943L35.6874 35.2943L35.4525 35.38ZM38.1525 42.78L38.3876 42.8651L41.0676 35.4651L40.8325 35.38L40.5974 35.2949L37.9174 42.6949L38.1525 42.78ZM40.8325 35.38V35.63H42.8725V35.38V35.13H40.8325V35.38ZM42.8725 35.38L42.6384 35.2924L39.0384 44.9124L39.2725 45L39.5066 45.0876L43.1066 35.4676L42.8725 35.38ZM39.2725 45V44.75H37.0125V45V45.25H39.2725V45ZM43.075 42.14V41.89H42.825V42.14H43.075ZM45.495 42.14H45.745V41.89H45.495V42.14ZM45.495 45V45.25H45.745V45H45.495ZM43.075 45H42.825V45.25H43.075V45ZM43.075 42.14V42.39H45.495V42.14V41.89H43.075V42.14ZM45.495 42.14H45.245V45H45.495H45.745V42.14H45.495ZM45.495 45V44.75H43.075V45V45.25H45.495V45ZM43.075 45H43.325V42.14H43.075H42.825V45H43.075ZM53.4844 32.72L53.7099 32.828L53.8813 32.47H53.4844V32.72ZM46.7844 32.72H46.5344V32.97H46.7844V32.72ZM46.7844 30.92V30.67H46.5344V30.92H46.7844ZM56.5044 30.92H56.7544V30.67H56.5044V30.92ZM56.5044 31.02L56.7301 31.1275L56.7544 31.0765V31.02H56.5044ZM49.8444 45V45.25H50.0022L50.0701 45.1075L49.8444 45ZM47.6044 45L47.3789 44.892L47.2075 45.25H47.6044V45ZM53.4844 32.72V32.47H46.7844V32.72V32.97H53.4844V32.72ZM46.7844 32.72H47.0344V30.92H46.7844H46.5344V32.72H46.7844ZM46.7844 30.92V31.17H56.5044V30.92V30.67H46.7844V30.92ZM56.5044 30.92H56.2544V31.02H56.5044H56.7544V30.92H56.5044ZM56.5044 31.02L56.2787 30.9125L49.6187 44.8925L49.8444 45L50.0701 45.1075L56.7301 31.1275L56.5044 31.02ZM49.8444 45V44.75H47.6044V45V45.25H49.8444V45ZM47.6044 45L47.8299 45.108L53.7099 32.828L53.4844 32.72L53.2589 32.612L47.3789 44.892L47.6044 45Z" fill="#25835C"/>
</g>
<defs>
<clipPath id="clip0_5993_28111">
<rect width="82" height="60" fill="white"/>
</clipPath>
</defs>
</svg>
