<svg width="82" height="60" viewBox="0 0 82 60" fill="none" xmlns="http://www.w3.org/2000/svg">
<g clip-path="url(#clip0_5993_28114)">
<path d="M0 60H82V0H72.8889V9.14286H63.7778V18.2857H54.6667V9.14286H45.5556V0H36.4444V9.14286H27.3333V18.2857H18.2222V9.14286H9.11111V0H0V60Z" fill="#3DDB99"/>
<path d="M33.4424 43.22V45H24.6824V30.92H26.7024V43.22H33.4424ZM37.034 45L33.434 35.38H35.474L38.174 42.78L40.854 35.38H42.894L39.294 45H37.034ZM43.0965 42.14H45.5165V45H43.0965V42.14ZM47.6113 40.86C47.6113 40.1 47.7847 39.42 48.1313 38.82C48.4913 38.2067 48.9847 37.7133 49.6113 37.34C49.158 37.0067 48.8047 36.6 48.5513 36.12C48.3113 35.6267 48.1913 35.0867 48.1913 34.5C48.1913 33.7933 48.3647 33.1533 48.7113 32.58C49.0713 32.0067 49.558 31.5533 50.1713 31.22C50.7847 30.8867 51.4647 30.72 52.2113 30.72C52.958 30.72 53.638 30.8867 54.2513 31.22C54.8647 31.5533 55.3447 32.0067 55.6913 32.58C56.0513 33.1533 56.2313 33.7933 56.2313 34.5C56.2313 35.0867 56.1047 35.6267 55.8513 36.12C55.6113 36.6 55.2647 37.0067 54.8113 37.34C55.438 37.7133 55.9247 38.2067 56.2713 38.82C56.6313 39.42 56.8113 40.1 56.8113 40.86C56.8113 41.6733 56.6113 42.4133 56.2113 43.08C55.8113 43.7333 55.258 44.2533 54.5513 44.64C53.858 45.0133 53.078 45.2 52.2113 45.2C51.3447 45.2 50.558 45.0133 49.8513 44.64C49.158 44.2533 48.6113 43.7333 48.2113 43.08C47.8113 42.4133 47.6113 41.6733 47.6113 40.86ZM52.2113 36.56C52.7847 36.56 53.2513 36.3733 53.6113 36C53.9847 35.6133 54.1713 35.1267 54.1713 34.54C54.1713 33.9533 53.9847 33.4667 53.6113 33.08C53.2513 32.6933 52.7847 32.5 52.2113 32.5C51.638 32.5 51.1647 32.6933 50.7913 33.08C50.4313 33.4667 50.2513 33.9533 50.2513 34.54C50.2513 35.1267 50.4313 35.6133 50.7913 36C51.1647 36.3733 51.638 36.56 52.2113 36.56ZM52.2113 43.42C52.9447 43.42 53.5447 43.1867 54.0113 42.72C54.4913 42.24 54.7313 41.62 54.7313 40.86C54.7313 40.1133 54.4913 39.5 54.0113 39.02C53.5447 38.54 52.9447 38.3 52.2113 38.3C51.478 38.3 50.8713 38.54 50.3913 39.02C49.9247 39.5 49.6913 40.1133 49.6913 40.86C49.6913 41.62 49.9247 42.24 50.3913 42.72C50.8713 43.1867 51.478 43.42 52.2113 43.42Z" fill="#25835C"/>
<path d="M33.4424 43.22H33.6924V42.97H33.4424V43.22ZM33.4424 45V45.25H33.6924V45H33.4424ZM24.6824 45H24.4324V45.25H24.6824V45ZM24.6824 30.92V30.67H24.4324V30.92H24.6824ZM26.7024 30.92H26.9524V30.67H26.7024V30.92ZM26.7024 43.22H26.4524V43.47H26.7024V43.22ZM33.4424 43.22H33.1924V45H33.4424H33.6924V43.22H33.4424ZM33.4424 45V44.75H24.6824V45V45.25H33.4424V45ZM24.6824 45H24.9324V30.92H24.6824H24.4324V45H24.6824ZM24.6824 30.92V31.17H26.7024V30.92V30.67H24.6824V30.92ZM26.7024 30.92H26.4524V43.22H26.7024H26.9524V30.92H26.7024ZM26.7024 43.22V43.47H33.4424V43.22V42.97H26.7024V43.22ZM37.034 45L36.7998 45.0876L36.8606 45.25H37.034V45ZM33.434 35.38V35.13H33.0735L33.1998 35.4676L33.434 35.38ZM35.474 35.38L35.7088 35.2943L35.6489 35.13H35.474V35.38ZM38.174 42.78L37.9391 42.8657L38.1749 43.5118L38.409 42.8651L38.174 42.78ZM40.854 35.38V35.13H40.6786L40.6189 35.2949L40.854 35.38ZM42.894 35.38L43.1281 35.4676L43.2545 35.13H42.894V35.38ZM39.294 45V45.25H39.4674L39.5281 45.0876L39.294 45ZM37.034 45L37.2681 44.9124L33.6681 35.2924L33.434 35.38L33.1998 35.4676L36.7998 45.0876L37.034 45ZM33.434 35.38V35.63H35.474V35.38V35.13H33.434V35.38ZM35.474 35.38L35.2391 35.4657L37.9391 42.8657L38.174 42.78L38.4088 42.6943L35.7088 35.2943L35.474 35.38ZM38.174 42.78L38.409 42.8651L41.089 35.4651L40.854 35.38L40.6189 35.2949L37.9389 42.6949L38.174 42.78ZM40.854 35.38V35.63H42.894V35.38V35.13H40.854V35.38ZM42.894 35.38L42.6598 35.2924L39.0598 44.9124L39.294 45L39.5281 45.0876L43.1281 35.4676L42.894 35.38ZM39.294 45V44.75H37.034V45V45.25H39.294V45ZM43.0965 42.14V41.89H42.8465V42.14H43.0965ZM45.5165 42.14H45.7665V41.89H45.5165V42.14ZM45.5165 45V45.25H45.7665V45H45.5165ZM43.0965 45H42.8465V45.25H43.0965V45ZM43.0965 42.14V42.39H45.5165V42.14V41.89H43.0965V42.14ZM45.5165 42.14H45.2665V45H45.5165H45.7665V42.14H45.5165ZM45.5165 45V44.75H43.0965V45V45.25H45.5165V45ZM43.0965 45H43.3465V42.14H43.0965H42.8465V45H43.0965ZM48.1313 38.82L47.9157 38.6934L47.9149 38.6949L48.1313 38.82ZM49.6113 37.34L49.7393 37.5548L50.0631 37.3619L49.7594 37.1386L49.6113 37.34ZM48.5513 36.12L48.3264 36.2294L48.3302 36.2367L48.5513 36.12ZM48.7113 32.58L48.4996 32.447L48.4974 32.4506L48.7113 32.58ZM50.1713 31.22L50.2907 31.4397V31.4397L50.1713 31.22ZM54.2513 31.22L54.132 31.4397V31.4397L54.2513 31.22ZM55.6913 32.58L55.4774 32.7094L55.4796 32.7129L55.6913 32.58ZM55.8513 36.12L55.6289 36.0058L55.6277 36.0082L55.8513 36.12ZM54.8113 37.34L54.6632 37.1386L54.3596 37.3619L54.6834 37.5548L54.8113 37.34ZM56.2713 38.82L56.0536 38.9431L56.057 38.9486L56.2713 38.82ZM56.2113 43.08L56.4245 43.2105L56.4257 43.2086L56.2113 43.08ZM54.5513 44.64L54.6699 44.8601L54.6713 44.8593L54.5513 44.64ZM49.8513 44.64L49.7295 44.8584L49.7345 44.861L49.8513 44.64ZM48.2113 43.08L47.9969 43.2086L47.9981 43.2105L48.2113 43.08ZM53.6113 36L53.4315 35.8264L53.4314 35.8265L53.6113 36ZM53.6113 33.08L53.4283 33.2504L53.4315 33.2536L53.6113 33.08ZM50.7913 33.08L50.6114 32.9063L50.6084 32.9096L50.7913 33.08ZM50.7913 36L50.6082 36.1705L50.6146 36.1768L50.7913 36ZM54.0113 42.72L54.1881 42.8968V42.8968L54.0113 42.72ZM54.0113 39.02L53.8321 39.1943L53.8346 39.1968L54.0113 39.02ZM50.3913 39.02L50.2145 38.8432L50.2121 38.8457L50.3913 39.02ZM50.3913 42.72L50.212 42.8943L50.2171 42.8992L50.3913 42.72ZM47.6113 40.86H47.8613C47.8613 40.1395 48.0252 39.5034 48.3478 38.9451L48.1313 38.82L47.9149 38.6949C47.5441 39.3366 47.3613 40.0605 47.3613 40.86H47.6113ZM48.1313 38.82L48.3469 38.9466C48.685 38.3705 49.1478 37.9071 49.7393 37.5548L49.6113 37.34L49.4834 37.1252C48.8215 37.5195 48.2976 38.0428 47.9157 38.6934L48.1313 38.82ZM49.6113 37.34L49.7594 37.1386C49.3354 36.8268 49.0075 36.4487 48.7724 36.0033L48.5513 36.12L48.3302 36.2367C48.6018 36.7513 48.9806 37.1866 49.4632 37.5414L49.6113 37.34ZM48.5513 36.12L48.7761 36.0106C48.5539 35.5537 48.4413 35.0515 48.4413 34.5H48.1913H47.9413C47.9413 35.1219 48.0688 35.6996 48.3265 36.2294L48.5513 36.12ZM48.1913 34.5H48.4413C48.4413 33.8363 48.6035 33.2415 48.9253 32.7094L48.7113 32.58L48.4974 32.4506C48.1258 33.0652 47.9413 33.7503 47.9413 34.5H48.1913ZM48.7113 32.58L48.923 32.7129C49.2595 32.1771 49.7139 31.7532 50.2907 31.4397L50.1713 31.22L50.052 31.0003C49.4021 31.3535 48.8832 31.8362 48.4996 32.4471L48.7113 32.58ZM50.1713 31.22L50.2907 31.4397C50.8649 31.1276 51.5034 30.97 52.2113 30.97V30.72V30.47C51.426 30.47 50.7045 30.6457 50.0519 31.0003L50.1713 31.22ZM52.2113 30.72V30.97C52.9193 30.97 53.5578 31.1276 54.132 31.4397L54.2513 31.22L54.3707 31.0003C53.7182 30.6457 52.9967 30.47 52.2113 30.47V30.72ZM54.2513 31.22L54.132 31.4397C54.708 31.7527 55.1547 32.1756 55.4774 32.7094L55.6913 32.58L55.9053 32.4506C55.5347 31.8377 55.0213 31.3539 54.3707 31.0003L54.2513 31.22ZM55.6913 32.58L55.4796 32.7129C55.8135 33.2446 55.9813 33.8382 55.9813 34.5H56.2313H56.4813C56.4813 33.7485 56.2892 33.062 55.903 32.4471L55.6913 32.58ZM56.2313 34.5H55.9813C55.9813 35.0493 55.8631 35.5498 55.6289 36.0058L55.8513 36.12L56.0737 36.2342C56.3462 35.7035 56.4813 35.124 56.4813 34.5H56.2313ZM55.8513 36.12L55.6277 36.0082C55.4063 36.451 55.0862 36.8275 54.6632 37.1386L54.8113 37.34L54.9594 37.5414C55.4431 37.1858 55.8164 36.749 56.0749 36.2318L55.8513 36.12ZM54.8113 37.34L54.6834 37.5548C55.2741 37.9067 55.7292 38.3689 56.0537 38.943L56.2713 38.82L56.489 38.697C56.1201 38.0444 55.6019 37.52 54.9393 37.1252L54.8113 37.34ZM56.2713 38.82L56.057 38.9486C56.3916 39.5064 56.5613 40.1413 56.5613 40.86H56.8113H57.0613C57.0613 40.0587 56.871 39.3336 56.4857 38.6914L56.2713 38.82ZM56.8113 40.86H56.5613C56.5613 41.6302 56.3725 42.3254 55.997 42.9514L56.2113 43.08L56.4257 43.2086C56.8501 42.5013 57.0613 41.7165 57.0613 40.86H56.8113ZM56.2113 43.08L55.9981 42.9495C55.6221 43.5636 55.1018 44.0538 54.4313 44.4207L54.5513 44.64L54.6713 44.8593C55.4142 44.4528 56.0006 43.903 56.4245 43.2105L56.2113 43.08ZM54.5513 44.64L54.4328 44.4199C53.7795 44.7717 53.0409 44.95 52.2113 44.95V45.2V45.45C53.1151 45.45 53.9365 45.255 54.6699 44.8601L54.5513 44.64ZM52.2113 45.2V44.95C51.3818 44.95 50.6358 44.7717 49.9681 44.419L49.8513 44.64L49.7345 44.861C50.4802 45.255 51.3075 45.45 52.2113 45.45V45.2ZM49.8513 44.64L49.9731 44.4217C49.3159 44.0551 48.8013 43.5648 48.4245 42.9495L48.2113 43.08L47.9981 43.2105C48.4214 43.9019 49.0001 44.4515 49.7296 44.8583L49.8513 44.64ZM48.2113 43.08L48.4257 42.9514C48.0501 42.3254 47.8613 41.6302 47.8613 40.86H47.6113H47.3613C47.3613 41.7165 47.5725 42.5013 47.997 43.2086L48.2113 43.08ZM52.2113 36.56V36.81C52.8446 36.81 53.379 36.6011 53.7913 36.1735L53.6113 36L53.4314 35.8265C53.1237 36.1455 52.7247 36.31 52.2113 36.31V36.56ZM53.6113 36L53.7912 36.1736C54.2138 35.7359 54.4213 35.185 54.4213 34.54H54.1713H53.9213C53.9213 35.0684 53.7555 35.4908 53.4315 35.8264L53.6113 36ZM54.1713 34.54H54.4213C54.4213 33.895 54.2138 33.3441 53.7912 32.9064L53.6113 33.08L53.4315 33.2536C53.7555 33.5892 53.9213 34.0116 53.9213 34.54H54.1713ZM53.6113 33.08L53.7943 32.9096C53.3827 32.4675 52.8475 32.25 52.2113 32.25V32.5V32.75C52.7219 32.75 53.12 32.9191 53.4284 33.2504L53.6113 33.08ZM52.2113 32.5V32.25C51.5752 32.25 51.0353 32.4674 50.6115 32.9064L50.7913 33.08L50.9712 33.2536C51.294 32.9193 51.7008 32.75 52.2113 32.75V32.5ZM50.7913 33.08L50.6084 32.9096C50.2004 33.3478 50.0013 33.8977 50.0013 34.54H50.2513H50.5013C50.5013 34.009 50.6623 33.5855 50.9743 33.2504L50.7913 33.08ZM50.2513 34.54H50.0013C50.0013 35.1823 50.2004 35.7322 50.6084 36.1704L50.7913 36L50.9743 35.8296C50.6623 35.4945 50.5013 35.071 50.5013 34.54H50.2513ZM50.7913 36L50.6146 36.1768C51.039 36.6013 51.578 36.81 52.2113 36.81V36.56V36.31C51.698 36.31 51.2903 36.1454 50.9681 35.8232L50.7913 36ZM52.2113 43.42V43.67C53.0029 43.67 53.6691 43.4157 54.1881 42.8968L54.0113 42.72L53.8346 42.5432C53.4202 42.9576 52.8864 43.17 52.2113 43.17V43.42ZM54.0113 42.72L54.1881 42.8968C54.7208 42.3641 54.9813 41.6776 54.9813 40.86H54.7313H54.4813C54.4813 41.5624 54.2619 42.1159 53.8346 42.5432L54.0113 42.72ZM54.7313 40.86H54.9813C54.9813 40.0543 54.7199 39.375 54.1881 38.8432L54.0113 39.02L53.8346 39.1968C54.2628 39.625 54.4813 40.1724 54.4813 40.86H54.7313ZM54.0113 39.02L54.1906 38.8457C53.6721 38.3124 53.0051 38.05 52.2113 38.05V38.3V38.55C52.8843 38.55 53.4172 38.7676 53.8321 39.1943L54.0113 39.02ZM52.2113 38.3V38.05C51.4176 38.05 50.7454 38.3123 50.2146 38.8432L50.3913 39.02L50.5681 39.1968C50.9972 38.7677 51.5384 38.55 52.2113 38.55V38.3ZM50.3913 39.02L50.2121 38.8457C49.6946 39.3779 49.4413 40.0564 49.4413 40.86H49.6913H49.9413C49.9413 40.1702 50.1547 39.6221 50.5706 39.1943L50.3913 39.02ZM49.6913 40.86H49.4413C49.4413 41.6755 49.6938 42.3612 50.2121 42.8943L50.3913 42.72L50.5706 42.5457C50.1555 42.1188 49.9413 41.5645 49.9413 40.86H49.6913ZM50.3913 42.72L50.2171 42.8992C50.7484 43.4158 51.4197 43.67 52.2113 43.67V43.42V43.17C51.5363 43.17 50.9943 42.9575 50.5656 42.5408L50.3913 42.72Z" fill="#25835C"/>
</g>
<defs>
<clipPath id="clip0_5993_28114">
<rect width="82" height="60" fill="white"/>
</clipPath>
</defs>
</svg>
