<svg width="82" height="60" viewBox="0 0 82 60" fill="none" xmlns="http://www.w3.org/2000/svg">
<g clip-path="url(#clip0_5993_28117)">
<path d="M0 60H82V0H72.8889V9.14286H63.7778V18.2857H54.6667V9.14286H45.5556V0H36.4444V9.14286H27.3333V18.2857H18.2222V9.14286H9.11111V0H0V60Z" fill="#3DDB99"/>
<path d="M33.4209 43.22V45H24.6609V30.92H26.6809V43.22H33.4209ZM37.0125 45L33.4125 35.38H35.4525L38.1525 42.78L40.8325 35.38H42.8725L39.2725 45H37.0125ZM43.075 42.14H45.495V45H43.075V42.14ZM50.9737 40.22C50.1604 40.22 49.4004 40.02 48.6937 39.62C48.0004 39.22 47.4404 38.6667 47.0137 37.96C46.6004 37.24 46.3937 36.4333 46.3937 35.54C46.3937 34.6333 46.6004 33.8133 47.0137 33.08C47.4404 32.3467 48.0204 31.7733 48.7537 31.36C49.4871 30.9333 50.3071 30.72 51.2137 30.72C52.1071 30.72 52.9204 30.9333 53.6538 31.36C54.3871 31.7733 54.9671 32.3533 55.3938 33.1C55.8204 33.8333 56.0337 34.6467 56.0337 35.54C56.0337 36.1267 55.9337 36.6733 55.7338 37.18C55.5337 37.6867 55.1604 38.34 54.6138 39.14L50.5737 45H48.1937L51.5738 40.16C51.3737 40.2 51.1737 40.22 50.9737 40.22ZM48.4737 35.54C48.4737 36.4467 48.7204 37.18 49.2137 37.74C49.7204 38.3 50.3871 38.58 51.2137 38.58C52.0404 38.58 52.7004 38.3 53.1938 37.74C53.7004 37.18 53.9537 36.4467 53.9537 35.54C53.9537 34.6333 53.7004 33.9 53.1938 33.34C52.7004 32.78 52.0404 32.5 51.2137 32.5C50.3871 32.5 49.7204 32.78 49.2137 33.34C48.7204 33.9 48.4737 34.6333 48.4737 35.54Z" fill="#25835C"/>
<path d="M33.4209 43.22H33.6709V42.97H33.4209V43.22ZM33.4209 45V45.25H33.6709V45H33.4209ZM24.6609 45H24.4109V45.25H24.6609V45ZM24.6609 30.92V30.67H24.4109V30.92H24.6609ZM26.6809 30.92H26.9309V30.67H26.6809V30.92ZM26.6809 43.22H26.4309V43.47H26.6809V43.22ZM33.4209 43.22H33.1709V45H33.4209H33.6709V43.22H33.4209ZM33.4209 45V44.75H24.6609V45V45.25H33.4209V45ZM24.6609 45H24.9109V30.92H24.6609H24.4109V45H24.6609ZM24.6609 30.92V31.17H26.6809V30.92V30.67H24.6609V30.92ZM26.6809 30.92H26.4309V43.22H26.6809H26.9309V30.92H26.6809ZM26.6809 43.22V43.47H33.4209V43.22V42.97H26.6809V43.22ZM37.0125 45L36.7784 45.0876L36.8391 45.25H37.0125V45ZM33.4125 35.38V35.13H33.052L33.1784 35.4676L33.4125 35.38ZM35.4525 35.38L35.6874 35.2943L35.6274 35.13H35.4525V35.38ZM38.1525 42.78L37.9176 42.8657L38.1534 43.5118L38.3876 42.8651L38.1525 42.78ZM40.8325 35.38V35.13H40.6572L40.5974 35.2949L40.8325 35.38ZM42.8725 35.38L43.1066 35.4676L43.233 35.13H42.8725V35.38ZM39.2725 45V45.25H39.4459L39.5066 45.0876L39.2725 45ZM37.0125 45L37.2466 44.9124L33.6466 35.2924L33.4125 35.38L33.1784 35.4676L36.7784 45.0876L37.0125 45ZM33.4125 35.38V35.63H35.4525V35.38V35.13H33.4125V35.38ZM35.4525 35.38L35.2176 35.4657L37.9176 42.8657L38.1525 42.78L38.3874 42.6943L35.6874 35.2943L35.4525 35.38ZM38.1525 42.78L38.3876 42.8651L41.0676 35.4651L40.8325 35.38L40.5974 35.2949L37.9174 42.6949L38.1525 42.78ZM40.8325 35.38V35.63H42.8725V35.38V35.13H40.8325V35.38ZM42.8725 35.38L42.6384 35.2924L39.0384 44.9124L39.2725 45L39.5066 45.0876L43.1066 35.4676L42.8725 35.38ZM39.2725 45V44.75H37.0125V45V45.25H39.2725V45ZM43.075 42.14V41.89H42.825V42.14H43.075ZM45.495 42.14H45.745V41.89H45.495V42.14ZM45.495 45V45.25H45.745V45H45.495ZM43.075 45H42.825V45.25H43.075V45ZM43.075 42.14V42.39H45.495V42.14V41.89H43.075V42.14ZM45.495 42.14H45.245V45H45.495H45.745V42.14H45.495ZM45.495 45V44.75H43.075V45V45.25H45.495V45ZM43.075 45H43.325V42.14H43.075H42.825V45H43.075ZM48.6938 39.62L48.5688 39.8366L48.5706 39.8376L48.6938 39.62ZM47.0138 37.96L46.7969 38.0845L46.7997 38.0892L47.0138 37.96ZM47.0138 33.08L46.7976 32.9543L46.796 32.9572L47.0138 33.08ZM48.7537 31.36L48.8765 31.5778L48.8795 31.5761L48.7537 31.36ZM53.6538 31.36L53.528 31.5761L53.531 31.5778L53.6538 31.36ZM55.3937 33.1L55.1767 33.224L55.1777 33.2257L55.3937 33.1ZM55.7337 37.18L55.9663 37.2718V37.2718L55.7337 37.18ZM54.6138 39.14L54.8196 39.2819L54.8202 39.281L54.6138 39.14ZM50.5737 45V45.25H50.705L50.7796 45.1419L50.5737 45ZM48.1938 45L47.9888 44.8569L47.7142 45.25H48.1938V45ZM51.5737 40.16L51.7787 40.3031L52.1351 39.7928L51.5247 39.9149L51.5737 40.16ZM49.2137 37.74L49.0261 37.9053L49.0284 37.9077L49.2137 37.74ZM53.1938 37.74L53.0084 37.5723L53.0062 37.5747L53.1938 37.74ZM53.1938 33.34L53.0061 33.5053L53.0084 33.5077L53.1938 33.34ZM49.2137 33.34L49.0283 33.1723L49.0262 33.1747L49.2137 33.34ZM50.9738 40.22V39.97C50.2035 39.97 49.4859 39.7811 48.8169 39.4024L48.6938 39.62L48.5706 39.8376C49.3149 40.2589 50.1173 40.47 50.9738 40.47V40.22ZM48.6938 39.62L48.8187 39.4035C48.1631 39.0252 47.6333 38.5025 47.2278 37.8308L47.0138 37.96L46.7997 38.0892C47.2475 38.8309 47.8377 39.4148 48.5688 39.8365L48.6938 39.62ZM47.0138 37.96L47.2306 37.8355C46.8406 37.1563 46.6437 36.3931 46.6437 35.54H46.3937H46.1437C46.1437 36.4736 46.3602 37.3237 46.7969 38.0845L47.0138 37.96ZM46.3937 35.54H46.6437C46.6437 34.6729 46.8409 33.8958 47.2315 33.2028L47.0138 33.08L46.796 32.9572C46.3599 33.7309 46.1437 34.5937 46.1437 35.54H46.3937ZM47.0138 33.08L47.2298 33.2057C47.6343 32.5105 48.1822 31.9691 48.8765 31.5778L48.7537 31.36L48.631 31.1422C47.8586 31.5776 47.2465 32.1828 46.7977 32.9543L47.0138 33.08ZM48.7537 31.36L48.8795 31.5761C49.572 31.1732 50.3481 30.97 51.2137 30.97V30.72V30.47C50.2661 30.47 49.4022 30.6935 48.628 31.1439L48.7537 31.36ZM51.2137 30.72V30.97C52.0653 30.97 52.8349 31.1728 53.528 31.5761L53.6538 31.36L53.7795 31.1439C53.0059 30.6938 52.1488 30.47 51.2137 30.47V30.72ZM53.6538 31.36L53.531 31.5778C54.2241 31.9685 54.7719 32.5157 55.1767 33.224L55.3937 33.1L55.6108 32.976C55.1623 32.191 54.55 31.5782 53.7765 31.1422L53.6538 31.36ZM55.3937 33.1L55.1777 33.2257C55.5809 33.9188 55.7837 34.6884 55.7837 35.54H56.0337H56.2837C56.2837 34.6049 56.0599 33.7478 55.6098 32.9743L55.3937 33.1ZM56.0337 35.54H55.7837C55.7837 36.0977 55.6888 36.613 55.5012 37.0882L55.7337 37.18L55.9663 37.2718C56.1787 36.7337 56.2837 36.1557 56.2837 35.54H56.0337ZM55.7337 37.18L55.5012 37.0882C55.3114 37.5691 54.9503 38.2044 54.4073 38.999L54.6138 39.14L54.8202 39.281C55.3706 38.4756 55.7561 37.8042 55.9663 37.2718L55.7337 37.18ZM54.6138 39.14L54.4079 38.9981L50.3679 44.8581L50.5737 45L50.7796 45.1419L54.8196 39.2819L54.6138 39.14ZM50.5737 45V44.75H48.1938V45V45.25H50.5737V45ZM48.1938 45L48.3987 45.1431L51.7787 40.3031L51.5737 40.16L51.3688 40.0169L47.9888 44.8569L48.1938 45ZM51.5737 40.16L51.5247 39.9149C51.3405 39.9517 51.157 39.97 50.9738 39.97V40.22V40.47C51.1905 40.47 51.407 40.4483 51.6228 40.4051L51.5737 40.16ZM48.4737 35.54H48.2237C48.2237 36.4938 48.4844 37.2903 49.0262 37.9053L49.2137 37.74L49.4013 37.5747C48.9564 37.0697 48.7237 36.3995 48.7237 35.54H48.4737ZM49.2137 37.74L49.0284 37.9077C49.5872 38.5254 50.3239 38.83 51.2137 38.83V38.58V38.33C50.4502 38.33 49.8536 38.0746 49.3991 37.5723L49.2137 37.74ZM51.2137 38.58V38.83C52.1036 38.83 52.8351 38.5253 53.3813 37.9053L53.1938 37.74L53.0062 37.5747C52.5657 38.0747 51.9773 38.33 51.2137 38.33V38.58ZM53.1938 37.74L53.3791 37.9077C53.9354 37.2929 54.2038 36.4955 54.2038 35.54H53.9538H53.7038C53.7038 36.3978 53.4654 37.0671 53.0084 37.5723L53.1938 37.74ZM53.9538 35.54H54.2038C54.2038 34.5845 53.9354 33.7871 53.3791 33.1723L53.1938 33.34L53.0084 33.5077C53.4654 34.0129 53.7038 34.6822 53.7038 35.54H53.9538ZM53.1938 33.34L53.3813 33.1747C52.8351 32.5547 52.1036 32.25 51.2137 32.25V32.5V32.75C51.9773 32.75 52.5657 33.0053 53.0062 33.5053L53.1938 33.34ZM51.2137 32.5V32.25C50.3239 32.25 49.5872 32.5546 49.0284 33.1723L49.2137 33.34L49.3991 33.5077C49.8536 33.0054 50.4502 32.75 51.2137 32.75V32.5ZM49.2137 33.34L49.0262 33.1747C48.4844 33.7897 48.2237 34.5862 48.2237 35.54H48.4737H48.7237C48.7237 34.6805 48.9564 34.0103 49.4013 33.5053L49.2137 33.34Z" fill="#25835C"/>
</g>
<defs>
<clipPath id="clip0_5993_28117">
<rect width="82" height="60" fill="white"/>
</clipPath>
</defs>
</svg>
